<?xml version="1.0" encoding="UTF-8" standalone="no"?><svg xmlns="http://www.w3.org/2000/svg" xmlns:xlink="http://www.w3.org/1999/xlink" clip-rule="evenodd" stroke-miterlimit="10" viewBox="0 0 99 99"><desc>SVG generated by Keynote</desc><defs></defs><g transform="matrix(1.00, 0.00, -0.00, -1.00, 0.0, 99.0)"><g><clipPath id="clip0x6000012a5e20"><path d="M 0.2 0.5 L 98.5 0.5 L 98.5 98.9 L 0.2 98.9 Z M 0.2 0.5 "></path></clipPath><g clip-path="url(#clip0x6000012a5e20)"><path d="M 82.7 83.1 C 101.2 64.7 101.2 34.8 82.7 16.3 C 64.3 -2.1 34.4 -2.1 16.0 16.3 C -2.4 34.8 -2.4 64.7 16.0 83.1 C 34.4 101.5 64.3 101.5 82.7 83.1 Z M 82.7 83.1 " fill="#FEFFFE"></path><path d="M 80.6 13.8 C 99.0 32.3 99.0 62.1 80.6 80.6 C 62.1 99.0 32.3 99.0 13.8 80.6 C -4.6 62.1 -4.6 32.3 13.8 13.8 C 32.3 -4.6 62.1 -4.6 80.6 13.8 Z M 80.6 13.8 " fill="none" stroke="#000000" stroke-width="2.00" transform="matrix(1.00, 0.00, 0.00, -1.00, 2.2, 96.9)"></path></g></g><g><clipPath id="clip0x6000012a6840"><path d="M 12.5 25.1 L 65.3 77.9 L 68.8 74.3 L 16.1 21.6 Z M 12.5 25.1 "></path></clipPath><g clip-path="url(#clip0x6000012a6840)"><path d="M 0.0 0.0 L 72.6 0.0 " fill="none" stroke="#0264C0" stroke-width="3.00" transform="matrix(0.71, 0.71, 0.71, -0.71, 15.0, 24.0)"></path></g></g><g><clipPath id="clip0x6000012a6a80"><path d="M 33.4 43.2 L 51.5 25.1 L 48.0 21.6 L 29.9 39.7 Z M 33.4 43.2 "></path></clipPath><g clip-path="url(#clip0x6000012a6a80)"><path d="M 0.0 0.0 L 23.6 0.0 " fill="none" stroke="#0264C0" stroke-width="3.00" transform="matrix(0.71, -0.71, -0.71, -0.71, 32.3, 40.7)"></path></g></g><g><clipPath id="clip0x6000012a6cc0"><path d="M 50.3 61.1 L 86.2 25.1 L 82.6 21.6 L 46.7 57.5 Z M 50.3 61.1 "></path></clipPath><g clip-path="url(#clip0x6000012a6cc0)"><path d="M 0.0 0.0 L 48.8 0.0 " fill="none" stroke="#0264C0" stroke-width="3.00" transform="matrix(0.71, -0.71, -0.71, -0.71, 49.2, 58.6)"></path></g></g><g><clipPath id="clip0x6000012a6f00"><path d="M 47.8 51.7 L 74.0 77.9 L 77.5 74.3 L 51.3 48.1 Z M 47.8 51.7 "></path></clipPath><g clip-path="url(#clip0x6000012a6f00)"><path d="M 0.0 0.0 L 35.1 0.0 " fill="none" stroke="#C82505" stroke-width="3.00" transform="matrix(0.71, 0.71, 0.71, -0.71, 50.2, 50.6)"></path></g></g><g><clipPath id="clip0x6000012a7140"><path d="M 58.0 60.7 L 66.8 51.9 L 63.2 48.3 L 54.5 57.1 Z M 58.0 60.7 "></path></clipPath><g clip-path="url(#clip0x6000012a7140)"><path d="M 0.0 0.0 L 10.4 0.0 " fill="none" stroke="#C82505" stroke-width="3.00" transform="matrix(0.71, -0.71, -0.71, -0.71, 57.0, 58.2)"></path></g></g></g></svg>