<?xml version="1.0" encoding="UTF-8" standalone="no"?><svg xmlns="http://www.w3.org/2000/svg" xmlns:xlink="http://www.w3.org/1999/xlink" clip-rule="evenodd" stroke-miterlimit="10" viewBox="0 0 100 99"><desc>SVG generated by Keynote</desc><defs></defs><g transform="matrix(1.00, 0.00, -0.00, -1.00, 0.0, 99.0)"><g><clipPath id="clip0x6000014af660"><path d="M 0.7 0.1 L 99.1 0.1 L 99.1 98.5 L 0.7 98.5 Z M 0.7 0.1 "></path></clipPath><g clip-path="url(#clip0x6000014af660)"><path d="M 83.3 82.7 C 101.7 64.3 101.7 34.4 83.3 16.0 C 64.8 -2.5 35.0 -2.5 16.5 16.0 C -1.9 34.4 -1.9 64.3 16.5 82.7 C 35.0 101.1 64.8 101.1 83.3 82.7 Z M 83.3 82.7 " fill="#FEFFFE"></path><path d="M 80.6 13.8 C 99.0 32.3 99.0 62.1 80.6 80.6 C 62.1 99.0 32.3 99.0 13.8 80.6 C -4.6 62.1 -4.6 32.3 13.8 13.8 C 32.3 -4.6 62.1 -4.6 80.6 13.8 Z M 80.6 13.8 " fill="none" stroke="#000000" stroke-width="2.00" transform="matrix(1.00, 0.00, 0.00, -1.00, 2.7, 96.5)"></path></g></g><g><clipPath id="clip0x6000014b0620"><path d="M 13.1 24.7 L 65.8 77.5 L 69.4 73.9 L 16.6 21.2 Z M 13.1 24.7 "></path></clipPath><g clip-path="url(#clip0x6000014b0620)"><path d="M 0.0 0.0 L 72.6 0.0 " fill="none" stroke="#0264C0" stroke-width="3.00" transform="matrix(0.71, 0.71, 0.71, -0.71, 15.6, 23.7)"></path></g></g><g><clipPath id="clip0x6000014b0860"><path d="M 34.0 42.8 L 52.0 24.7 L 48.5 21.2 L 30.4 39.3 Z M 34.0 42.8 "></path></clipPath><g clip-path="url(#clip0x6000014b0860)"><path d="M 0.0 0.0 L 23.6 0.0 " fill="none" stroke="#0264C0" stroke-width="3.00" transform="matrix(0.71, -0.71, -0.71, -0.71, 32.9, 40.3)"></path></g></g><g><clipPath id="clip0x6000014b0aa0"><path d="M 50.8 60.7 L 86.7 24.8 L 83.2 21.2 L 47.3 57.1 Z M 50.8 60.7 "></path></clipPath><g clip-path="url(#clip0x6000014b0aa0)"><path d="M 0.0 0.0 L 48.8 0.0 " fill="none" stroke="#0264C0" stroke-width="3.00" transform="matrix(0.71, -0.71, -0.71, -0.71, 49.7, 58.2)"></path></g></g><g><clipPath id="clip0x6000014b0ce0"><path d="M 21.6 24.6 L 74.5 77.5 L 78.0 73.9 L 25.2 21.1 Z M 21.6 24.6 "></path></clipPath><g clip-path="url(#clip0x6000014b0ce0)"><path d="M 0.0 0.0 L 72.8 0.0 " fill="none" stroke="#C82505" stroke-width="3.00" transform="matrix(0.71, 0.71, 0.71, -0.71, 24.1, 23.6)"></path></g></g><g><clipPath id="clip0x6000014b0f20"><path d="M 58.6 60.3 L 87.1 31.9 L 83.6 28.4 L 55.0 56.7 Z M 58.6 60.3 "></path></clipPath><g clip-path="url(#clip0x6000014b0f20)"><path d="M 0.0 0.0 L 38.2 0.0 " fill="none" stroke="#C82505" stroke-width="3.00" transform="matrix(0.71, -0.71, -0.71, -0.71, 57.5, 57.8)"></path></g></g><g><clipPath id="clip0x6000014b1160"><path d="M 50.3 41.0 L 78.6 41.0 L 78.6 36.0 L 50.3 36.0 Z M 50.3 41.0 "></path></clipPath><g clip-path="url(#clip0x6000014b1160)"><path d="M -0.3 -0.0 L 26.7 -0.0 " fill="none" stroke="#C82505" stroke-width="3.00" transform="matrix(1.00, 0.00, 0.00, -1.00, 51.3, 38.5)"></path></g></g><g><clipPath id="clip0x6000014b13a0"><path d="M 51.9 41.4 L 68.7 24.8 L 65.2 21.3 L 48.4 37.8 Z M 51.9 41.4 "></path></clipPath><g clip-path="url(#clip0x6000014b13a0)"><path d="M 0.0 0.0 L 21.6 0.0 " fill="none" stroke="#C82505" stroke-width="3.00" transform="matrix(0.71, -0.70, -0.70, -0.71, 50.9, 38.9)"></path></g></g><g><clipPath id="clip0x6000014b15e0"><path d="M 41.1 42.1 L 58.5 24.8 L 55.0 21.3 L 37.6 38.6 Z M 41.1 42.1 "></path></clipPath><g clip-path="url(#clip0x6000014b15e0)"><path d="M 0.0 0.0 L 22.5 0.0 " fill="none" stroke="#C82505" stroke-width="3.00" transform="matrix(0.71, -0.71, -0.71, -0.71, 40.1, 39.7)"></path></g></g><g><clipPath id="clip0x6000014b1820"><path d="M 26.5 25.0 L 35.9 25.0 L 35.9 30.0 L 26.5 30.0 Z M 26.5 25.0 "></path></clipPath><g clip-path="url(#clip0x6000014b1820)"><path d="M 0.5 0.0 L 7.5 0.0 " fill="none" stroke="#C82505" stroke-width="3.00" transform="matrix(1.00, 0.00, 0.00, -1.00, 27.5, 27.5)"></path></g></g><g><clipPath id="clip0x6000014b1a60"><path d="M 28.0 24.2 L 34.2 30.4 L 37.7 26.9 L 31.5 20.6 Z M 28.0 24.2 "></path></clipPath><g clip-path="url(#clip0x6000014b1a60)"><path d="M 0.0 0.0 L 6.8 0.0 " fill="none" stroke="#C82505" stroke-width="3.00" transform="matrix(0.71, 0.71, 0.71, -0.71, 30.4, 23.1)"></path></g></g></g></svg>