<?xml version="1.0" encoding="UTF-8" standalone="no"?><svg xmlns="http://www.w3.org/2000/svg" xmlns:xlink="http://www.w3.org/1999/xlink" clip-rule="evenodd" stroke-miterlimit="10" viewBox="0 0 100 100"><desc>SVG generated by Keynote</desc><defs></defs><g transform="matrix(1.00, 0.00, -0.00, -1.00, 0.0, 100.0)"><g><clipPath id="clip0x6000014a9f60"><path d="M 0.8 0.7 L 99.2 0.7 L 99.2 99.1 L 0.8 99.1 Z M 0.8 0.7 "></path></clipPath><g clip-path="url(#clip0x6000014a9f60)"><path d="M 83.4 83.3 C 101.8 64.9 101.8 35.0 83.4 16.5 C 65.0 -1.9 35.1 -1.9 16.7 16.5 C -1.8 35.0 -1.8 64.9 16.7 83.3 C 35.1 101.7 65.0 101.7 83.4 83.3 Z M 83.4 83.3 " fill="#FEFFFE"></path><path d="M 80.6 13.8 C 99.0 32.3 99.0 62.1 80.6 80.6 C 62.1 99.0 32.3 99.0 13.8 80.6 C -4.6 62.1 -4.6 32.3 13.8 13.8 C 32.3 -4.6 62.1 -4.6 80.6 13.8 Z M 80.6 13.8 " fill="none" stroke="#000000" stroke-width="2.00" transform="matrix(1.00, 0.00, 0.00, -1.00, 2.8, 97.1)"></path></g></g><g><clipPath id="clip0x6000014aaf20"><path d="M 13.2 25.3 L 66.0 78.1 L 69.5 74.5 L 16.7 21.8 Z M 13.2 25.3 "></path></clipPath><g clip-path="url(#clip0x6000014aaf20)"><path d="M 0.0 0.0 L 72.6 0.0 " fill="none" stroke="#0264C0" stroke-width="3.00" transform="matrix(0.71, 0.71, 0.71, -0.71, 15.7, 24.2)"></path></g></g><g><clipPath id="clip0x6000014ab160"><path d="M 34.1 43.4 L 52.2 25.3 L 48.6 21.8 L 30.5 39.9 Z M 34.1 43.4 "></path></clipPath><g clip-path="url(#clip0x6000014ab160)"><path d="M 0.0 0.0 L 23.6 0.0 " fill="none" stroke="#0264C0" stroke-width="3.00" transform="matrix(0.71, -0.71, -0.71, -0.71, 33.0, 40.9)"></path></g></g><g><clipPath id="clip0x6000014ab3a0"><path d="M 50.9 61.3 L 86.8 25.3 L 83.3 21.8 L 47.4 57.7 Z M 50.9 61.3 "></path></clipPath><g clip-path="url(#clip0x6000014ab3a0)"><path d="M 0.0 0.0 L 48.8 0.0 " fill="none" stroke="#0264C0" stroke-width="3.00" transform="matrix(0.71, -0.71, -0.71, -0.71, 49.9, 58.8)"></path></g></g><g><clipPath id="clip0x6000014ab5e0"><path d="M 21.8 25.2 L 74.6 78.1 L 78.2 74.5 L 25.3 21.7 Z M 21.8 25.2 "></path></clipPath><g clip-path="url(#clip0x6000014ab5e0)"><path d="M 0.0 0.0 L 72.8 0.0 " fill="none" stroke="#C82505" stroke-width="3.00" transform="matrix(0.71, 0.71, 0.71, -0.71, 24.2, 24.2)"></path></g></g><g><clipPath id="clip0x6000014ab820"><path d="M 58.7 60.9 L 92.9 26.4 L 89.3 22.9 L 55.1 57.3 Z M 58.7 60.9 "></path></clipPath><g clip-path="url(#clip0x6000014ab820)"><path d="M 0.0 0.0 L 46.5 0.0 " fill="none" stroke="#C82505" stroke-width="3.00" transform="matrix(0.70, -0.71, -0.71, -0.70, 57.6, 58.4)"></path></g></g><g><clipPath id="clip0x6000014aba60"><path d="M 50.4 41.5 L 78.7 41.5 L 78.7 36.5 L 50.4 36.5 Z M 50.4 41.5 "></path></clipPath><g clip-path="url(#clip0x6000014aba60)"><path d="M -0.4 -0.5 L 26.6 -0.5 " fill="none" stroke="#C82505" stroke-width="3.00" transform="matrix(1.00, 0.00, 0.00, -1.00, 51.4, 39.0)"></path></g></g><g><clipPath id="clip0x6000014abca0"><path d="M 52.1 42.0 L 68.8 25.4 L 65.3 21.8 L 48.6 38.4 Z M 52.1 42.0 "></path></clipPath><g clip-path="url(#clip0x6000014abca0)"><path d="M 0.0 0.0 L 21.6 0.0 " fill="none" stroke="#C82505" stroke-width="3.00" transform="matrix(0.71, -0.70, -0.70, -0.71, 51.0, 39.5)"></path></g></g><g><clipPath id="clip0x6000014abee0"><path d="M 41.3 42.7 L 58.7 25.4 L 55.1 21.9 L 37.7 39.2 Z M 41.3 42.7 "></path></clipPath><g clip-path="url(#clip0x6000014abee0)"><path d="M 0.0 0.0 L 22.5 0.0 " fill="none" stroke="#C82505" stroke-width="3.00" transform="matrix(0.71, -0.71, -0.71, -0.71, 40.2, 40.2)"></path></g></g><g><clipPath id="clip0x6000014ac120"><path d="M 26.6 25.6 L 36.0 25.6 L 36.0 30.6 L 26.6 30.6 Z M 26.6 25.6 "></path></clipPath><g clip-path="url(#clip0x6000014ac120)"><path d="M 0.4 -0.4 L 7.4 -0.4 " fill="none" stroke="#C82505" stroke-width="3.00" transform="matrix(1.00, 0.00, 0.00, -1.00, 27.6, 28.1)"></path></g></g><g><clipPath id="clip0x6000014ac360"><path d="M 28.1 24.8 L 34.3 31.0 L 37.8 27.5 L 31.6 21.2 Z M 28.1 24.8 "></path></clipPath><g clip-path="url(#clip0x6000014ac360)"><path d="M 0.0 0.0 L 6.8 0.0 " fill="none" stroke="#C82505" stroke-width="3.00" transform="matrix(0.71, 0.71, 0.71, -0.71, 30.6, 23.7)"></path></g></g></g></svg>