<?xml version="1.0" encoding="UTF-8" standalone="no"?><svg xmlns="http://www.w3.org/2000/svg" xmlns:xlink="http://www.w3.org/1999/xlink" clip-rule="evenodd" stroke-miterlimit="10" viewBox="0 0 99 100"><desc>SVG generated by Keynote</desc><defs></defs><g transform="matrix(1.00, 0.00, -0.00, -1.00, 0.0, 100.0)"><g><clipPath id="clip0x6000014a7aa0"><path d="M 0.4 0.9 L 98.8 0.9 L 98.8 99.3 L 0.4 99.3 Z M 0.4 0.9 "></path></clipPath><g clip-path="url(#clip0x6000014a7aa0)"><path d="M 82.9 83.5 C 101.4 65.1 101.4 35.2 82.9 16.8 C 64.5 -1.7 34.6 -1.7 16.2 16.8 C -2.2 35.2 -2.2 65.1 16.2 83.5 C 34.6 101.9 64.5 101.9 82.9 83.5 Z M 82.9 83.5 " fill="#FEFFFE"></path><path d="M 80.6 13.8 C 99.0 32.3 99.0 62.1 80.6 80.6 C 62.1 99.0 32.3 99.0 13.8 80.6 C -4.6 62.1 -4.6 32.3 13.8 13.8 C 32.3 -4.6 62.1 -4.6 80.6 13.8 Z M 80.6 13.8 " fill="none" stroke="#000000" stroke-width="2.00" transform="matrix(1.00, 0.00, 0.00, -1.00, 2.4, 97.3)"></path></g></g><g><clipPath id="clip0x6000014a8940"><path d="M 12.7 25.5 L 65.5 78.3 L 69.0 74.7 L 16.3 22.0 Z M 12.7 25.5 "></path></clipPath><g clip-path="url(#clip0x6000014a8940)"><path d="M 0.0 0.0 L 72.6 0.0 " fill="none" stroke="#0264C0" stroke-width="3.00" transform="matrix(0.71, 0.71, 0.71, -0.71, 15.2, 24.5)"></path></g></g><g><clipPath id="clip0x6000014a8b80"><path d="M 33.6 43.6 L 51.7 25.5 L 48.2 22.0 L 30.1 40.1 Z M 33.6 43.6 "></path></clipPath><g clip-path="url(#clip0x6000014a8b80)"><path d="M 0.0 0.0 L 23.6 0.0 " fill="none" stroke="#0264C0" stroke-width="3.00" transform="matrix(0.71, -0.71, -0.71, -0.71, 32.6, 41.1)"></path></g></g><g><clipPath id="clip0x6000014a8dc0"><path d="M 50.5 61.5 L 86.4 25.6 L 82.8 22.0 L 46.9 57.9 Z M 50.5 61.5 "></path></clipPath><g clip-path="url(#clip0x6000014a8dc0)"><path d="M 0.0 0.0 L 48.8 0.0 " fill="none" stroke="#0264C0" stroke-width="3.00" transform="matrix(0.71, -0.71, -0.71, -0.71, 49.4, 59.0)"></path></g></g><g><clipPath id="clip0x6000014a9000"><path d="M 41.6 45.7 L 74.2 78.3 L 77.7 74.7 L 45.2 42.2 Z M 41.6 45.7 "></path></clipPath><g clip-path="url(#clip0x6000014a9000)"><path d="M 0.0 0.0 L 44.0 0.0 " fill="none" stroke="#C82505" stroke-width="3.00" transform="matrix(0.71, 0.71, 0.71, -0.71, 44.1, 44.7)"></path></g></g><g><clipPath id="clip0x6000014a9240"><path d="M 58.2 61.1 L 92.0 26.9 L 88.5 23.4 L 54.7 57.5 Z M 58.2 61.1 "></path></clipPath><g clip-path="url(#clip0x6000014a9240)"><path d="M 0.0 0.0 L 46.0 0.0 " fill="none" stroke="#C82505" stroke-width="3.00" transform="matrix(0.70, -0.71, -0.71, -0.70, 57.2, 58.6)"></path></g></g><g><clipPath id="clip0x6000014a9480"><path d="M 41.9 41.8 L 78.2 41.8 L 78.2 36.8 L 41.9 36.8 Z M 41.9 41.8 "></path></clipPath><g clip-path="url(#clip0x6000014a9480)"><path d="M 0.1 -0.2 L 34.1 -0.2 " fill="none" stroke="#C82505" stroke-width="3.00" transform="matrix(1.00, 0.00, 0.00, -1.00, 42.9, 39.3)"></path></g></g><g><clipPath id="clip0x6000014a96c0"><path d="M 65.2 47.6 L 74.6 47.6 L 74.6 52.6 L 65.2 52.6 Z M 65.2 47.6 "></path></clipPath><g clip-path="url(#clip0x6000014a96c0)"><path d="M -0.2 -0.4 L 7.8 -0.4 " fill="none" stroke="#C82505" stroke-width="3.00" transform="matrix(1.00, 0.00, 0.00, -1.00, 66.2, 50.1)"></path></g></g><g><clipPath id="clip0x6000014a9900"><path d="M 73.1 53.3 L 93.9 32.6 L 90.4 29.0 L 69.6 49.7 Z M 73.1 53.3 "></path></clipPath><g clip-path="url(#clip0x6000014a9900)"><path d="M 0.0 0.0 L 27.4 0.0 " fill="none" stroke="#C82505" stroke-width="3.00" transform="matrix(0.71, -0.70, -0.70, -0.71, 72.0, 50.8)"></path></g></g><g><clipPath id="clip0x6000014a9b40"><path d="M 43.0 42.0 L 59.2 25.6 L 55.7 22.1 L 39.5 38.5 Z M 43.0 42.0 "></path></clipPath><g clip-path="url(#clip0x6000014a9b40)"><path d="M 0.0 0.0 L 21.1 0.0 " fill="none" stroke="#C82505" stroke-width="3.00" transform="matrix(0.70, -0.71, -0.71, -0.70, 42.0, 39.5)"></path></g></g></g></svg>