<?xml version="1.0" encoding="UTF-8" standalone="no"?><svg xmlns="http://www.w3.org/2000/svg" xmlns:xlink="http://www.w3.org/1999/xlink" clip-rule="evenodd" stroke-miterlimit="10" viewBox="0 0 100 99"><desc>SVG generated by Keynote</desc><defs></defs><g transform="matrix(1.00, 0.00, -0.00, -1.00, 0.0, 99.0)"><g><clipPath id="clip0x6000014ac780"><path d="M 0.7 0.0 L 99.1 0.0 L 99.1 98.4 L 0.7 98.4 Z M 0.7 0.0 "></path></clipPath><g clip-path="url(#clip0x6000014ac780)"><path d="M 83.2 82.6 C 101.7 64.2 101.7 34.3 83.2 15.8 C 64.8 -2.6 34.9 -2.6 16.5 15.8 C -1.9 34.3 -1.9 64.2 16.5 82.6 C 34.9 101.0 64.8 101.0 83.2 82.6 Z M 83.2 82.6 " fill="#FEFFFE"></path><path d="M 80.6 13.8 C 99.0 32.3 99.0 62.1 80.6 80.6 C 62.1 99.0 32.3 99.0 13.8 80.6 C -4.6 62.1 -4.6 32.3 13.8 13.8 C 32.3 -4.6 62.1 -4.6 80.6 13.8 Z M 80.6 13.8 " fill="none" stroke="#000000" stroke-width="2.00" transform="matrix(1.00, 0.00, 0.00, -1.00, 2.7, 96.4)"></path></g></g><g><clipPath id="clip0x6000014ad980"><path d="M 13.0 24.6 L 65.8 77.4 L 69.3 73.8 L 16.6 21.1 Z M 13.0 24.6 "></path></clipPath><g clip-path="url(#clip0x6000014ad980)"><path d="M 0.0 0.0 L 72.6 0.0 " fill="none" stroke="#0264C0" stroke-width="3.00" transform="matrix(0.71, 0.71, 0.71, -0.71, 15.5, 23.5)"></path></g></g><g><clipPath id="clip0x6000014adbc0"><path d="M 33.9 42.7 L 52.0 24.6 L 48.5 21.1 L 30.4 39.2 Z M 33.9 42.7 "></path></clipPath><g clip-path="url(#clip0x6000014adbc0)"><path d="M 0.0 0.0 L 23.6 0.0 " fill="none" stroke="#0264C0" stroke-width="3.00" transform="matrix(0.71, -0.71, -0.71, -0.71, 32.8, 40.2)"></path></g></g><g><clipPath id="clip0x6000014ade00"><path d="M 50.8 60.6 L 86.7 24.6 L 83.1 21.1 L 47.2 57.0 Z M 50.8 60.6 "></path></clipPath><g clip-path="url(#clip0x6000014ade00)"><path d="M 0.0 0.0 L 48.8 0.0 " fill="none" stroke="#0264C0" stroke-width="3.00" transform="matrix(0.71, -0.71, -0.71, -0.71, 49.7, 58.1)"></path></g></g><g><clipPath id="clip0x6000014ae040"><path d="M 21.6 24.5 L 74.5 77.4 L 78.0 73.8 L 25.1 21.0 Z M 21.6 24.5 "></path></clipPath><g clip-path="url(#clip0x6000014ae040)"><path d="M 0.0 0.0 L 72.8 0.0 " fill="none" stroke="#C82505" stroke-width="3.00" transform="matrix(0.71, 0.71, 0.71, -0.71, 24.1, 23.5)"></path></g></g><g><clipPath id="clip0x6000014ae280"><path d="M 58.5 60.2 L 92.7 25.7 L 89.1 22.2 L 55.0 56.6 Z M 58.5 60.2 "></path></clipPath><g clip-path="url(#clip0x6000014ae280)"><path d="M 0.0 0.0 L 46.5 0.0 " fill="none" stroke="#C82505" stroke-width="3.00" transform="matrix(0.70, -0.71, -0.71, -0.70, 57.5, 57.7)"></path></g></g><g><clipPath id="clip0x6000014ae4c0"><path d="M 50.2 40.8 L 78.5 40.8 L 78.5 35.8 L 50.2 35.8 Z M 50.2 40.8 "></path></clipPath><g clip-path="url(#clip0x6000014ae4c0)"><path d="M -0.2 -0.2 L 26.8 -0.2 " fill="none" stroke="#C82505" stroke-width="3.00" transform="matrix(1.00, 0.00, 0.00, -1.00, 51.2, 38.3)"></path></g></g><g><clipPath id="clip0x6000014ae700"><path d="M 51.9 41.3 L 68.7 24.7 L 65.1 21.1 L 48.4 37.7 Z M 51.9 41.3 "></path></clipPath><g clip-path="url(#clip0x6000014ae700)"><path d="M 0.0 0.0 L 21.6 0.0 " fill="none" stroke="#C82505" stroke-width="3.00" transform="matrix(0.71, -0.70, -0.70, -0.71, 50.9, 38.8)"></path></g></g><g><clipPath id="clip0x6000014ae940"><path d="M 41.1 42.0 L 58.5 24.7 L 55.0 21.2 L 37.6 38.5 Z M 41.1 42.0 "></path></clipPath><g clip-path="url(#clip0x6000014ae940)"><path d="M 0.0 0.0 L 22.5 0.0 " fill="none" stroke="#C82505" stroke-width="3.00" transform="matrix(0.71, -0.71, -0.71, -0.71, 40.0, 39.5)"></path></g></g><g><clipPath id="clip0x6000014aeb80"><path d="M 26.5 24.9 L 35.9 24.9 L 35.9 29.9 L 26.5 29.9 Z M 26.5 24.9 "></path></clipPath><g clip-path="url(#clip0x6000014aeb80)"><path d="M -0.5 -0.1 L 7.5 -0.1 " fill="none" stroke="#C82505" stroke-width="3.00" transform="matrix(1.00, 0.00, 0.00, -1.00, 27.5, 27.4)"></path></g></g><g><clipPath id="clip0x6000014aedc0"><path d="M 28.0 24.2 L 35.2 30.4 L 38.5 26.6 L 31.3 20.4 Z M 28.0 24.2 "></path></clipPath><g clip-path="url(#clip0x6000014aedc0)"><path d="M 0.0 0.0 L 7.5 0.0 " fill="none" stroke="#C82505" stroke-width="3.00" transform="matrix(0.76, 0.65, 0.65, -0.76, 30.4, 23.0)"></path></g></g><g><clipPath id="clip0x6000014af000"><path d="M 57.2 28.9 L 66.6 28.9 L 66.6 33.9 L 57.2 33.9 Z M 57.2 28.9 "></path></clipPath><g clip-path="url(#clip0x6000014af000)"><path d="M -0.2 -0.1 L 7.8 -0.1 " fill="none" stroke="#C82505" stroke-width="3.00" transform="matrix(1.00, 0.00, 0.00, -1.00, 58.2, 31.4)"></path></g></g><g><clipPath id="clip0x6000014af240"><path d="M 71.7 20.6 L 61.4 31.1 L 65.0 34.6 L 75.2 24.2 Z M 71.7 20.6 "></path></clipPath><g clip-path="url(#clip0x6000014af240)"><path d="M 0.0 0.0 L 12.6 0.0 " fill="none" stroke="#C82505" stroke-width="3.00" transform="matrix(-0.70, 0.71, 0.71, 0.70, 72.7, 23.1)"></path></g></g></g></svg>