<?xml version="1.0" encoding="UTF-8" standalone="no"?><svg xmlns="http://www.w3.org/2000/svg" xmlns:xlink="http://www.w3.org/1999/xlink" clip-rule="evenodd" stroke-miterlimit="10" viewBox="0 0 100 100"><desc>SVG generated by Keynote</desc><defs></defs><g transform="matrix(1.00, 0.00, -0.00, -1.00, 0.0, 100.0)"><g><clipPath id="clip0x6000012b7040"><path d="M 0.7 0.9 L 99.1 0.9 L 99.1 99.3 L 0.7 99.3 Z M 0.7 0.9 "></path></clipPath><g clip-path="url(#clip0x6000012b7040)"><path d="M 83.3 83.5 C 101.7 65.1 101.7 35.2 83.3 16.7 C 64.8 -1.7 34.9 -1.7 16.5 16.7 C -1.9 35.2 -1.9 65.1 16.5 83.5 C 34.9 101.9 64.8 101.9 83.3 83.5 Z M 83.3 83.5 " fill="#FEFFFE"></path><path d="M 80.6 13.8 C 99.0 32.3 99.0 62.1 80.6 80.6 C 62.1 99.0 32.3 99.0 13.8 80.6 C -4.6 62.1 -4.6 32.3 13.8 13.8 C 32.3 -4.6 62.1 -4.6 80.6 13.8 Z M 80.6 13.8 " fill="none" stroke="#000000" stroke-width="2.00" transform="matrix(1.00, 0.00, 0.00, -1.00, 2.7, 97.3)"></path></g></g><g><clipPath id="clip0x6000012b8000"><path d="M 13.1 25.5 L 65.8 78.3 L 69.4 74.7 L 16.6 22.0 Z M 13.1 25.5 "></path></clipPath><g clip-path="url(#clip0x6000012b8000)"><path d="M 0.0 0.0 L 72.6 0.0 " fill="none" stroke="#0264C0" stroke-width="3.00" transform="matrix(0.71, 0.71, 0.71, -0.71, 15.5, 24.4)"></path></g></g><g><clipPath id="clip0x6000012b8240"><path d="M 33.9 43.6 L 52.0 25.5 L 48.5 22.0 L 30.4 40.1 Z M 33.9 43.6 "></path></clipPath><g clip-path="url(#clip0x6000012b8240)"><path d="M 0.0 0.0 L 23.6 0.0 " fill="none" stroke="#0264C0" stroke-width="3.00" transform="matrix(0.71, -0.71, -0.71, -0.71, 32.9, 41.1)"></path></g></g><g><clipPath id="clip0x6000012b8480"><path d="M 50.8 61.5 L 86.7 25.5 L 83.2 22.0 L 47.2 57.9 Z M 50.8 61.5 "></path></clipPath><g clip-path="url(#clip0x6000012b8480)"><path d="M 0.0 0.0 L 48.8 0.0 " fill="none" stroke="#0264C0" stroke-width="3.00" transform="matrix(0.71, -0.71, -0.71, -0.71, 49.7, 59.0)"></path></g></g><g><clipPath id="clip0x6000012b86c0"><path d="M 21.6 25.4 L 74.5 78.3 L 78.0 74.7 L 25.1 21.9 Z M 21.6 25.4 "></path></clipPath><g clip-path="url(#clip0x6000012b86c0)"><path d="M 0.0 0.0 L 72.8 0.0 " fill="none" stroke="#C82505" stroke-width="3.00" transform="matrix(0.71, 0.71, 0.71, -0.71, 24.1, 24.4)"></path></g></g><g><clipPath id="clip0x6000012b8900"><path d="M 58.5 61.1 L 87.1 32.7 L 83.5 29.1 L 55.0 57.5 Z M 58.5 61.1 "></path></clipPath><g clip-path="url(#clip0x6000012b8900)"><path d="M 0.0 0.0 L 38.2 0.0 " fill="none" stroke="#C82505" stroke-width="3.00" transform="matrix(0.71, -0.71, -0.71, -0.71, 57.5, 58.6)"></path></g></g><g><clipPath id="clip0x6000012b8b40"><path d="M 50.2 41.7 L 78.5 41.7 L 78.5 36.7 L 50.2 36.7 Z M 50.2 41.7 "></path></clipPath><g clip-path="url(#clip0x6000012b8b40)"><path d="M -0.2 -0.3 L 26.8 -0.3 " fill="none" stroke="#C82505" stroke-width="3.00" transform="matrix(1.00, 0.00, 0.00, -1.00, 51.2, 39.2)"></path></g></g><g><clipPath id="clip0x6000012b8d80"><path d="M 51.9 42.2 L 68.7 25.6 L 65.2 22.0 L 48.4 38.6 Z M 51.9 42.2 "></path></clipPath><g clip-path="url(#clip0x6000012b8d80)"><path d="M 0.0 0.0 L 21.6 0.0 " fill="none" stroke="#C82505" stroke-width="3.00" transform="matrix(0.71, -0.70, -0.70, -0.71, 50.9, 39.7)"></path></g></g><g><clipPath id="clip0x6000012b8fc0"><path d="M 41.1 42.9 L 58.5 25.6 L 55.0 22.1 L 37.6 39.4 Z M 41.1 42.9 "></path></clipPath><g clip-path="url(#clip0x6000012b8fc0)"><path d="M 0.0 0.0 L 22.5 0.0 " fill="none" stroke="#C82505" stroke-width="3.00" transform="matrix(0.71, -0.71, -0.71, -0.71, 40.1, 40.4)"></path></g></g><g><clipPath id="clip0x6000012b9200"><path d="M 26.5 25.8 L 35.9 25.8 L 35.9 30.8 L 26.5 30.8 Z M 26.5 25.8 "></path></clipPath><g clip-path="url(#clip0x6000012b9200)"><path d="M -0.5 -0.2 L 7.5 -0.2 " fill="none" stroke="#C82505" stroke-width="3.00" transform="matrix(1.00, 0.00, 0.00, -1.00, 27.5, 28.3)"></path></g></g><g><clipPath id="clip0x6000012b9440"><path d="M 27.9 25.0 L 34.2 31.2 L 37.7 27.7 L 31.5 21.4 Z M 27.9 25.0 "></path></clipPath><g clip-path="url(#clip0x6000012b9440)"><path d="M 0.0 0.0 L 6.8 0.0 " fill="none" stroke="#C82505" stroke-width="3.00" transform="matrix(0.71, 0.71, 0.71, -0.71, 30.4, 23.9)"></path></g></g></g></svg>