<?xml version="1.0" encoding="UTF-8" standalone="no"?><svg xmlns="http://www.w3.org/2000/svg" xmlns:xlink="http://www.w3.org/1999/xlink" clip-rule="evenodd" stroke-miterlimit="10" viewBox="0 0 100 99"><desc>SVG generated by Keynote</desc><defs></defs><g transform="matrix(1.00, 0.00, -0.00, -1.00, 0.0, 99.0)"><g><clipPath id="clip0x6000012ab160"><path d="M 0.8 0.5 L 99.2 0.5 L 99.2 98.9 L 0.8 98.9 Z M 0.8 0.5 "></path></clipPath><g clip-path="url(#clip0x6000012ab160)"><path d="M 83.4 83.1 C 101.8 64.7 101.8 34.8 83.4 16.3 C 65.0 -2.1 35.1 -2.1 16.7 16.3 C -1.8 34.8 -1.8 64.7 16.7 83.1 C 35.1 101.5 65.0 101.5 83.4 83.1 Z M 83.4 83.1 " fill="#FEFFFE"></path><path d="M 80.6 13.8 C 99.0 32.3 99.0 62.1 80.6 80.6 C 62.1 99.0 32.3 99.0 13.8 80.6 C -4.6 62.1 -4.6 32.3 13.8 13.8 C 32.3 -4.6 62.1 -4.6 80.6 13.8 Z M 80.6 13.8 " fill="none" stroke="#000000" stroke-width="2.00" transform="matrix(1.00, 0.00, 0.00, -1.00, 2.8, 96.9)"></path></g></g><g><clipPath id="clip0x6000012aba60"><path d="M 13.2 25.1 L 66.0 77.9 L 69.5 74.3 L 16.7 21.6 Z M 13.2 25.1 "></path></clipPath><g clip-path="url(#clip0x6000012aba60)"><path d="M 0.0 0.0 L 72.6 0.0 " fill="none" stroke="#0264C0" stroke-width="3.00" transform="matrix(0.71, 0.71, 0.71, -0.71, 15.7, 24.0)"></path></g></g><g><clipPath id="clip0x6000012abca0"><path d="M 34.1 43.2 L 52.2 25.1 L 48.6 21.6 L 30.5 39.7 Z M 34.1 43.2 "></path></clipPath><g clip-path="url(#clip0x6000012abca0)"><path d="M 0.0 0.0 L 23.6 0.0 " fill="none" stroke="#0264C0" stroke-width="3.00" transform="matrix(0.71, -0.71, -0.71, -0.71, 33.0, 40.7)"></path></g></g><g><clipPath id="clip0x6000012abee0"><path d="M 50.9 61.1 L 86.8 25.1 L 83.3 21.6 L 47.4 57.5 Z M 50.9 61.1 "></path></clipPath><g clip-path="url(#clip0x6000012abee0)"><path d="M 0.0 0.0 L 48.8 0.0 " fill="none" stroke="#0264C0" stroke-width="3.00" transform="matrix(0.71, -0.71, -0.71, -0.71, 49.9, 58.6)"></path></g></g><g><clipPath id="clip0x6000012ac120"><path d="M 61.1 64.4 L 73.8 77.1 L 77.3 73.6 L 64.6 60.9 Z M 61.1 64.4 "></path></clipPath><g clip-path="url(#clip0x6000012ac120)"><path d="M 0.0 0.0 L 16.0 0.0 " fill="none" stroke="#C82505" stroke-width="3.00" transform="matrix(0.71, 0.71, 0.71, -0.71, 63.6, 63.3)"></path></g></g></g></svg>