<?xml version="1.0" encoding="UTF-8" standalone="no"?><svg xmlns="http://www.w3.org/2000/svg" xmlns:xlink="http://www.w3.org/1999/xlink" clip-rule="evenodd" stroke-miterlimit="10" viewBox="0 0 100 100"><desc>SVG generated by Keynote</desc><defs></defs><g transform="matrix(1.00, 0.00, -0.00, -1.00, 0.0, 100.0)"><g><clipPath id="clip0x6000012b9860"><path d="M 0.8 0.9 L 99.2 0.9 L 99.2 99.3 L 0.8 99.3 Z M 0.8 0.9 "></path></clipPath><g clip-path="url(#clip0x6000012b9860)"><path d="M 83.4 83.5 C 101.8 65.1 101.8 35.2 83.4 16.7 C 65.0 -1.7 35.1 -1.7 16.6 16.7 C -1.8 35.2 -1.8 65.1 16.6 83.5 C 35.1 101.9 65.0 101.9 83.4 83.5 Z M 83.4 83.5 " fill="#FEFFFE"></path><path d="M 80.6 13.8 C 99.0 32.3 99.0 62.1 80.6 80.6 C 62.1 99.0 32.3 99.0 13.8 80.6 C -4.6 62.1 -4.6 32.3 13.8 13.8 C 32.3 -4.6 62.1 -4.6 80.6 13.8 Z M 80.6 13.8 " fill="none" stroke="#000000" stroke-width="2.00" transform="matrix(1.00, 0.00, 0.00, -1.00, 2.8, 97.3)"></path></g></g><g><clipPath id="clip0x6000012ba820"><path d="M 13.2 25.5 L 66.0 78.3 L 69.5 74.7 L 16.7 22.0 Z M 13.2 25.5 "></path></clipPath><g clip-path="url(#clip0x6000012ba820)"><path d="M 0.0 0.0 L 72.6 0.0 " fill="none" stroke="#0264C0" stroke-width="3.00" transform="matrix(0.71, 0.71, 0.71, -0.71, 15.7, 24.4)"></path></g></g><g><clipPath id="clip0x6000012baa60"><path d="M 34.1 43.6 L 52.2 25.5 L 48.6 22.0 L 30.5 40.1 Z M 34.1 43.6 "></path></clipPath><g clip-path="url(#clip0x6000012baa60)"><path d="M 0.0 0.0 L 23.6 0.0 " fill="none" stroke="#0264C0" stroke-width="3.00" transform="matrix(0.71, -0.71, -0.71, -0.71, 33.0, 41.1)"></path></g></g><g><clipPath id="clip0x6000012baca0"><path d="M 50.9 61.5 L 86.8 25.5 L 83.3 22.0 L 47.4 57.9 Z M 50.9 61.5 "></path></clipPath><g clip-path="url(#clip0x6000012baca0)"><path d="M 0.0 0.0 L 48.8 0.0 " fill="none" stroke="#0264C0" stroke-width="3.00" transform="matrix(0.71, -0.71, -0.71, -0.71, 49.9, 59.0)"></path></g></g><g><clipPath id="clip0x6000012baee0"><path d="M 21.7 25.4 L 74.6 78.3 L 78.2 74.7 L 25.3 21.9 Z M 21.7 25.4 "></path></clipPath><g clip-path="url(#clip0x6000012baee0)"><path d="M 0.0 0.0 L 72.8 0.0 " fill="none" stroke="#C82505" stroke-width="3.00" transform="matrix(0.71, 0.71, 0.71, -0.71, 24.2, 24.4)"></path></g></g><g><clipPath id="clip0x6000012bb120"><path d="M 58.7 61.1 L 92.9 26.6 L 89.3 23.1 L 55.1 57.5 Z M 58.7 61.1 "></path></clipPath><g clip-path="url(#clip0x6000012bb120)"><path d="M 0.0 0.0 L 46.5 0.0 " fill="none" stroke="#C82505" stroke-width="3.00" transform="matrix(0.70, -0.71, -0.71, -0.70, 57.6, 58.6)"></path></g></g><g><clipPath id="clip0x6000012bb360"><path d="M 50.4 41.7 L 78.7 41.7 L 78.7 36.7 L 50.4 36.7 Z M 50.4 41.7 "></path></clipPath><g clip-path="url(#clip0x6000012bb360)"><path d="M -0.4 -0.3 L 26.6 -0.3 " fill="none" stroke="#C82505" stroke-width="3.00" transform="matrix(1.00, 0.00, 0.00, -1.00, 51.4, 39.2)"></path></g></g><g><clipPath id="clip0x6000012bb5a0"><path d="M 52.1 42.2 L 68.8 25.6 L 65.3 22.0 L 48.5 38.6 Z M 52.1 42.2 "></path></clipPath><g clip-path="url(#clip0x6000012bb5a0)"><path d="M 0.0 0.0 L 21.6 0.0 " fill="none" stroke="#C82505" stroke-width="3.00" transform="matrix(0.71, -0.70, -0.70, -0.71, 51.0, 39.7)"></path></g></g><g><clipPath id="clip0x6000012bb7e0"><path d="M 41.3 42.9 L 58.7 25.6 L 55.1 22.1 L 37.7 39.4 Z M 41.3 42.9 "></path></clipPath><g clip-path="url(#clip0x6000012bb7e0)"><path d="M 0.0 0.0 L 22.5 0.0 " fill="none" stroke="#C82505" stroke-width="3.00" transform="matrix(0.71, -0.71, -0.71, -0.71, 40.2, 40.4)"></path></g></g><g><clipPath id="clip0x6000012bba20"><path d="M 26.6 25.8 L 36.0 25.8 L 36.0 30.8 L 26.6 30.8 Z M 26.6 25.8 "></path></clipPath><g clip-path="url(#clip0x6000012bba20)"><path d="M 0.4 -0.2 L 7.4 -0.2 " fill="none" stroke="#C82505" stroke-width="3.00" transform="matrix(1.00, 0.00, 0.00, -1.00, 27.6, 28.3)"></path></g></g><g><clipPath id="clip0x6000012bbc60"><path d="M 28.1 25.0 L 34.3 31.2 L 37.8 27.7 L 31.6 21.4 Z M 28.1 25.0 "></path></clipPath><g clip-path="url(#clip0x6000012bbc60)"><path d="M 0.0 0.0 L 6.8 0.0 " fill="none" stroke="#C82505" stroke-width="3.00" transform="matrix(0.71, 0.71, 0.71, -0.71, 30.6, 23.9)"></path></g></g></g></svg>