<?xml version="1.0" encoding="UTF-8" standalone="no"?><svg xmlns="http://www.w3.org/2000/svg" xmlns:xlink="http://www.w3.org/1999/xlink" clip-rule="evenodd" stroke-miterlimit="10" viewBox="0 0 99 99"><desc>SVG generated by Keynote</desc><defs></defs><g transform="matrix(1.00, 0.00, -0.00, -1.00, 0.0, 99.0)"><g><clipPath id="clip0x6000010bf8c0"><path d="M 0.5 0.4 L 98.9 0.4 L 98.9 98.8 L 0.5 98.8 Z M 0.5 0.4 "></path></clipPath><g clip-path="url(#clip0x6000010bf8c0)"><path d="M 83.1 83.0 C 101.5 64.5 101.5 34.6 83.1 16.2 C 64.6 -2.2 34.7 -2.2 16.3 16.2 C -2.1 34.6 -2.1 64.5 16.3 83.0 C 34.7 101.4 64.6 101.4 83.1 83.0 Z M 83.1 83.0 " fill="#FEFFFE"></path><path d="M 80.6 13.8 C 99.0 32.3 99.0 62.1 80.6 80.6 C 62.1 99.0 32.3 99.0 13.8 80.6 C -4.6 62.1 -4.6 32.3 13.8 13.8 C 32.3 -4.6 62.1 -4.6 80.6 13.8 Z M 80.6 13.8 " fill="none" stroke="#000000" stroke-width="2.00" transform="matrix(1.00, 0.00, 0.00, -1.00, 2.5, 96.8)"></path></g></g><g><clipPath id="clip0x6000012a00c0"><path d="M 12.9 25.0 L 65.6 77.7 L 69.2 74.2 L 16.4 21.4 Z M 12.9 25.0 "></path></clipPath><g clip-path="url(#clip0x6000012a00c0)"><path d="M 0.0 0.0 L 72.6 0.0 " fill="none" stroke="#0264C0" stroke-width="3.00" transform="matrix(0.71, 0.71, 0.71, -0.71, 15.3, 23.9)"></path></g></g><g><clipPath id="clip0x6000012a0300"><path d="M 33.7 43.1 L 51.8 25.0 L 48.3 21.4 L 30.2 39.5 Z M 33.7 43.1 "></path></clipPath><g clip-path="url(#clip0x6000012a0300)"><path d="M 0.0 0.0 L 23.6 0.0 " fill="none" stroke="#0264C0" stroke-width="3.00" transform="matrix(0.71, -0.71, -0.71, -0.71, 32.7, 40.6)"></path></g></g><g><clipPath id="clip0x6000012a0540"><path d="M 50.6 60.9 L 86.5 25.0 L 83.0 21.5 L 47.1 57.4 Z M 50.6 60.9 "></path></clipPath><g clip-path="url(#clip0x6000012a0540)"><path d="M 0.0 0.0 L 48.8 0.0 " fill="none" stroke="#0264C0" stroke-width="3.00" transform="matrix(0.71, -0.71, -0.71, -0.71, 49.5, 58.4)"></path></g></g></g></svg>