<?xml version="1.0" encoding="UTF-8" standalone="no"?><svg xmlns="http://www.w3.org/2000/svg" xmlns:xlink="http://www.w3.org/1999/xlink" clip-rule="evenodd" stroke-miterlimit="10" viewBox="0 0 100 99"><desc>SVG generated by Keynote</desc><defs></defs><g transform="matrix(1.00, 0.00, -0.00, -1.00, 0.0, 99.0)"><g><clipPath id="clip0x6000012a7560"><path d="M 0.9 0.3 L 99.3 0.3 L 99.3 98.7 L 0.9 98.7 Z M 0.9 0.3 "></path></clipPath><g clip-path="url(#clip0x6000012a7560)"><path d="M 83.5 82.9 C 101.9 64.5 101.9 34.6 83.5 16.2 C 65.0 -2.3 35.1 -2.3 16.7 16.2 C -1.7 34.6 -1.7 64.5 16.7 82.9 C 35.1 101.3 65.0 101.3 83.5 82.9 Z M 83.5 82.9 " fill="#FEFFFE"></path><path d="M 80.6 13.8 C 99.0 32.3 99.0 62.1 80.6 80.6 C 62.1 99.0 32.3 99.0 13.8 80.6 C -4.6 62.1 -4.6 32.3 13.8 13.8 C 32.3 -4.6 62.1 -4.6 80.6 13.8 Z M 80.6 13.8 " fill="none" stroke="#000000" stroke-width="2.00" transform="matrix(1.00, 0.00, 0.00, -1.00, 2.9, 96.7)"></path></g></g><g><clipPath id="clip0x6000012a7f80"><path d="M 13.3 24.9 L 66.0 77.7 L 69.6 74.1 L 16.8 21.4 Z M 13.3 24.9 "></path></clipPath><g clip-path="url(#clip0x6000012a7f80)"><path d="M 0.0 0.0 L 72.6 0.0 " fill="none" stroke="#0264C0" stroke-width="3.00" transform="matrix(0.71, 0.71, 0.71, -0.71, 15.7, 23.9)"></path></g></g><g><clipPath id="clip0x6000012a81c0"><path d="M 34.1 43.0 L 52.2 24.9 L 48.7 21.4 L 30.6 39.5 Z M 34.1 43.0 "></path></clipPath><g clip-path="url(#clip0x6000012a81c0)"><path d="M 0.0 0.0 L 23.6 0.0 " fill="none" stroke="#0264C0" stroke-width="3.00" transform="matrix(0.71, -0.71, -0.71, -0.71, 33.1, 40.5)"></path></g></g><g><clipPath id="clip0x6000012a8400"><path d="M 51.0 60.9 L 86.9 25.0 L 83.4 21.4 L 47.4 57.3 Z M 51.0 60.9 "></path></clipPath><g clip-path="url(#clip0x6000012a8400)"><path d="M 0.0 0.0 L 48.8 0.0 " fill="none" stroke="#0264C0" stroke-width="3.00" transform="matrix(0.71, -0.71, -0.71, -0.71, 49.9, 58.4)"></path></g></g><g><clipPath id="clip0x6000012a8640"><path d="M 49.3 51.5 L 75.5 77.7 L 79.0 74.1 L 52.8 47.9 Z M 49.3 51.5 "></path></clipPath><g clip-path="url(#clip0x6000012a8640)"><path d="M 0.0 0.0 L 35.1 0.0 " fill="none" stroke="#C82505" stroke-width="3.00" transform="matrix(0.71, 0.71, 0.71, -0.71, 51.7, 50.4)"></path></g></g><g><clipPath id="clip0x6000012a8880"><path d="M 59.5 60.5 L 68.3 51.7 L 64.7 48.2 L 56.0 56.9 Z M 59.5 60.5 "></path></clipPath><g clip-path="url(#clip0x6000012a8880)"><path d="M 0.0 0.0 L 10.4 0.0 " fill="none" stroke="#C82505" stroke-width="3.00" transform="matrix(0.71, -0.71, -0.71, -0.71, 58.5, 58.0)"></path></g></g></g></svg>