<?xml version="1.0" encoding="UTF-8" standalone="no"?><svg xmlns="http://www.w3.org/2000/svg" xmlns:xlink="http://www.w3.org/1999/xlink" clip-rule="evenodd" stroke-miterlimit="10" viewBox="0 0 99 100"><desc>SVG generated by Keynote</desc><defs></defs><g transform="matrix(1.00, 0.00, -0.00, -1.00, 0.0, 100.0)"><g><clipPath id="clip0x6000014a0900"><path d="M 0.5 0.9 L 98.9 0.9 L 98.9 99.3 L 0.5 99.3 Z M 0.5 0.9 "></path></clipPath><g clip-path="url(#clip0x6000014a0900)"><path d="M 83.1 83.4 C 101.5 65.0 101.5 35.1 83.1 16.7 C 64.7 -1.7 34.8 -1.7 16.4 16.7 C -2.1 35.1 -2.1 65.0 16.4 83.4 C 34.8 101.9 64.7 101.9 83.1 83.4 Z M 83.1 83.4 " fill="#FEFFFE"></path><path d="M 80.6 13.8 C 99.0 32.3 99.0 62.1 80.6 80.6 C 62.1 99.0 32.3 99.0 13.8 80.6 C -4.6 62.1 -4.6 32.3 13.8 13.8 C 32.3 -4.6 62.1 -4.6 80.6 13.8 Z M 80.6 13.8 " fill="none" stroke="#000000" stroke-width="2.00" transform="matrix(1.00, 0.00, 0.00, -1.00, 2.5, 97.3)"></path></g></g><g><clipPath id="clip0x6000014a1680"><path d="M 12.9 25.4 L 65.7 78.2 L 69.2 74.7 L 16.4 21.9 Z M 12.9 25.4 "></path></clipPath><g clip-path="url(#clip0x6000014a1680)"><path d="M 0.0 0.0 L 72.6 0.0 " fill="none" stroke="#0264C0" stroke-width="3.00" transform="matrix(0.71, 0.71, 0.71, -0.71, 15.4, 24.4)"></path></g></g><g><clipPath id="clip0x6000014a18c0"><path d="M 33.8 43.5 L 51.9 25.4 L 48.3 21.9 L 30.2 40.0 Z M 33.8 43.5 "></path></clipPath><g clip-path="url(#clip0x6000014a18c0)"><path d="M 0.0 0.0 L 23.6 0.0 " fill="none" stroke="#0264C0" stroke-width="3.00" transform="matrix(0.71, -0.71, -0.71, -0.71, 32.7, 41.1)"></path></g></g><g><clipPath id="clip0x6000014a1b00"><path d="M 50.6 61.4 L 86.5 25.5 L 83.0 21.9 L 47.1 57.9 Z M 50.6 61.4 "></path></clipPath><g clip-path="url(#clip0x6000014a1b00)"><path d="M 0.0 0.0 L 48.8 0.0 " fill="none" stroke="#0264C0" stroke-width="3.00" transform="matrix(0.71, -0.71, -0.71, -0.71, 49.6, 58.9)"></path></g></g><g><clipPath id="clip0x6000014a1d40"><path d="M 31.2 35.3 L 74.3 78.2 L 77.9 74.7 L 34.7 31.7 Z M 31.2 35.3 "></path></clipPath><g clip-path="url(#clip0x6000014a1d40)"><path d="M 0.0 0.0 L 58.9 0.0 " fill="none" stroke="#C82505" stroke-width="3.00" transform="matrix(0.71, 0.71, 0.71, -0.71, 33.6, 34.2)"></path></g></g><g><clipPath id="clip0x6000014a1f80"><path d="M 58.4 61.0 L 83.5 36.2 L 80.0 32.7 L 54.9 57.4 Z M 58.4 61.0 "></path></clipPath><g clip-path="url(#clip0x6000014a1f80)"><path d="M 0.0 0.0 L 33.3 0.0 " fill="none" stroke="#C82505" stroke-width="3.00" transform="matrix(0.71, -0.70, -0.70, -0.71, 57.3, 58.5)"></path></g></g><g><clipPath id="clip0x6000014a21c0"><path d="M 49.0 41.7 L 78.4 41.7 L 78.4 36.7 L 49.0 36.7 Z M 49.0 41.7 "></path></clipPath><g clip-path="url(#clip0x6000014a21c0)"><path d="M 0.0 -0.3 L 27.0 -0.3 " fill="none" stroke="#C82505" stroke-width="3.00" transform="matrix(1.00, 0.00, 0.00, -1.00, 50.0, 39.2)"></path></g></g><g><clipPath id="clip0x6000014a2400"><path d="M 49.9 42.4 L 56.9 35.4 L 53.4 31.8 L 46.4 38.8 Z M 49.9 42.4 "></path></clipPath><g clip-path="url(#clip0x6000014a2400)"><path d="M 0.0 0.0 L 7.9 0.0 " fill="none" stroke="#C82505" stroke-width="3.00" transform="matrix(0.71, -0.71, -0.71, -0.71, 48.9, 39.9)"></path></g></g><g><clipPath id="clip0x6000014a2640"><path d="M 41.0 42.8 L 48.3 35.5 L 44.8 31.9 L 37.4 39.3 Z M 41.0 42.8 "></path></clipPath><g clip-path="url(#clip0x6000014a2640)"><path d="M 0.0 0.0 L 8.4 0.0 " fill="none" stroke="#C82505" stroke-width="3.00" transform="matrix(0.71, -0.71, -0.71, -0.71, 39.9, 40.4)"></path></g></g></g></svg>