<?xml version="1.0" encoding="UTF-8" standalone="no"?><svg xmlns="http://www.w3.org/2000/svg" xmlns:xlink="http://www.w3.org/1999/xlink" clip-rule="evenodd" stroke-miterlimit="10" viewBox="0 0 215 40"><desc>SVG generated by Keynote</desc><defs></defs><g transform="matrix(1.00, 0.00, -0.00, -1.00, 0.0, 40.0)"><text xml:space="preserve" font-family="CMUSansSerif-Bold,CMU Sans Serif" font-weight="bold" font-size="36.0" fill="#0264C0" transform="matrix(1.00, 0.00, -0.00, -1.00, -1.4, 10.7)">H</text><text xml:space="preserve" font-family="CMUSansSerif-Bold,CMU Sans Serif" font-weight="bold" font-size="36.0" fill="#0264C0" transform="matrix(1.00, 0.00, -0.00, -1.00, 27.2, 10.7)">o</text><text xml:space="preserve" font-family="CMUSansSerif-Bold,CMU Sans Serif" font-weight="bold" font-size="36.0" fill="#0264C0" transform="matrix(1.00, 0.00, -0.00, -1.00, 47.0, 10.7)">s</text><text xml:space="preserve" font-family="CMUSansSerif-Bold,CMU Sans Serif" font-weight="bold" font-size="36.0" fill="#0264C0" transform="matrix(1.00, 0.00, -0.00, -1.00, 62.2, 10.7)">t</text><text xml:space="preserve" font-family="CMUSansSerif,CMU Sans Serif" font-size="36.0" fill="#000000" transform="matrix(1.00, 0.00, -0.00, -1.00, 76.7, 10.7)"> </text><text xml:space="preserve" font-family="CMUSansSerif,CMU Sans Serif" font-size="36.0" fill="#000000" transform="matrix(1.00, 0.00, -0.00, -1.00, 88.7, 10.7)">/</text><text xml:space="preserve" font-family="CMUSansSerif,CMU Sans Serif" font-size="36.0" fill="#000000" transform="matrix(1.00, 0.00, -0.00, -1.00, 106.7, 10.7)"> </text><text xml:space="preserve" font-family="CMUSansSerif-Bold,CMU Sans Serif" font-weight="bold" font-size="36.0" fill="#C82505" transform="matrix(1.00, 0.00, -0.00, -1.00, 118.7, 10.7)">G</text><text xml:space="preserve" font-family="CMUSansSerif-Bold,CMU Sans Serif" font-weight="bold" font-size="36.0" fill="#C82505" transform="matrix(1.00, 0.00, -0.00, -1.00, 145.1, 10.7)">u</text><text xml:space="preserve" font-family="CMUSansSerif-Bold,CMU Sans Serif" font-weight="bold" font-size="36.0" fill="#C82505" transform="matrix(1.00, 0.00, -0.00, -1.00, 165.3, 10.7)">e</text><text xml:space="preserve" font-family="CMUSansSerif-Bold,CMU Sans Serif" font-weight="bold" font-size="36.0" fill="#C82505" transform="matrix(1.00, 0.00, -0.00, -1.00, 183.7, 10.7)">s</text><text xml:space="preserve" font-family="CMUSansSerif-Bold,CMU Sans Serif" font-weight="bold" font-size="36.0" fill="#C82505" transform="matrix(1.00, 0.00, -0.00, -1.00, 198.9, 10.7)">t</text></g></svg>