<?xml version="1.0" encoding="UTF-8" standalone="no"?><svg xmlns="http://www.w3.org/2000/svg" xmlns:xlink="http://www.w3.org/1999/xlink" clip-rule="evenodd" stroke-miterlimit="10" viewBox="0 0 270 185"><desc>SVG generated by Keynote</desc><defs></defs><g transform="matrix(1.00, 0.00, -0.00, -1.00, 0.0, 185.0)"><g><clipPath id="clip0x6000012ae6a0"><path d="M 0.1 5.1 L 179.1 184.2 L 183.3 179.9 L 4.3 0.9 Z M 0.1 5.1 "></path></clipPath><g clip-path="url(#clip0x6000012ae6a0)"><path d="M 0.0 0.0 L 251.2 0.0 " fill="none" stroke="#0264C0" stroke-width="4.00" transform="matrix(0.71, 0.71, 0.71, -0.71, 2.9, 3.7)"></path></g></g><g><clipPath id="clip0x6000012af360"><path d="M 64.3 64.2 L 123.4 5.1 L 119.1 0.9 L 60.0 60.0 Z M 64.3 64.2 "></path></clipPath><g clip-path="url(#clip0x6000012af360)"><path d="M 0.0 0.0 L 81.6 0.0 " fill="none" stroke="#0264C0" stroke-width="4.00" transform="matrix(0.71, -0.71, -0.71, -0.71, 62.9, 61.4)"></path></g></g><g><clipPath id="clip0x6000012af5a0"><path d="M 122.6 126.0 L 243.4 5.2 L 239.1 1.0 L 118.3 121.8 Z M 122.6 126.0 "></path></clipPath><g clip-path="url(#clip0x6000012af5a0)"><path d="M 0.0 0.0 L 168.8 0.0 " fill="none" stroke="#0264C0" stroke-width="4.00" transform="matrix(0.71, -0.71, -0.71, -0.71, 121.2, 123.2)"></path></g></g><g><clipPath id="clip0x6000012af7e0"><path d="M 26.0 5.1 L 205.1 184.2 L 209.3 179.9 L 30.3 0.9 Z M 26.0 5.1 "></path></clipPath><g clip-path="url(#clip0x6000012af7e0)"><path d="M 0.0 0.0 L 251.2 0.0 " fill="none" stroke="#C82505" stroke-width="4.00" transform="matrix(0.71, 0.71, 0.71, -0.71, 28.9, 3.7)"></path></g></g><g><clipPath id="clip0x6000012afa20"><path d="M 149.2 125.9 L 270.0 5.1 L 265.7 0.9 L 144.9 121.7 Z M 149.2 125.9 "></path></clipPath><g clip-path="url(#clip0x6000012afa20)"><path d="M 0.0 0.0 L 168.8 0.0 " fill="none" stroke="#C82505" stroke-width="4.00" transform="matrix(0.71, -0.71, -0.71, -0.71, 147.8, 123.1)"></path></g></g><g><clipPath id="clip0x6000012afc60"><path d="M 104.9 51.2 L 151.3 4.8 L 147.0 0.6 L 100.7 46.9 Z M 104.9 51.2 "></path></clipPath><g clip-path="url(#clip0x6000012afc60)"><path d="M 0.0 0.0 L 63.5 0.0 " fill="none" stroke="#C82505" stroke-width="4.00" transform="matrix(0.71, -0.71, -0.71, -0.71, 103.5, 48.3)"></path></g></g><g><clipPath id="clip0x6000012afea0"><path d="M 101.4 45.2 L 224.6 45.2 L 224.6 51.2 L 101.4 51.2 Z M 101.4 45.2 "></path></clipPath><g clip-path="url(#clip0x6000012afea0)"><path d="M -0.4 0.2 L 121.6 0.2 " fill="none" stroke="#C82505" stroke-width="4.00" transform="matrix(1.00, 0.00, 0.00, -1.00, 102.4, 48.2)"></path></g></g><g><clipPath id="clip0x6000012b00e0"><path d="M 37.3 10.3 L 62.4 10.3 L 62.4 16.3 L 37.3 16.3 Z M 37.3 10.3 "></path></clipPath><g clip-path="url(#clip0x6000012b00e0)"><path d="M -0.3 0.3 L 22.7 0.3 " fill="none" stroke="#C82505" stroke-width="4.00" transform="matrix(1.00, 0.00, 0.00, -1.00, 38.3, 13.3)"></path></g></g><g><clipPath id="clip0x6000012b0320"><path d="M 47.7 5.1 L 60.0 17.4 L 64.2 13.1 L 52.0 0.9 Z M 47.7 5.1 "></path></clipPath><g clip-path="url(#clip0x6000012b0320)"><path d="M 0.0 0.0 L 15.3 0.0 " fill="none" stroke="#C82505" stroke-width="4.00" transform="matrix(0.71, 0.71, 0.71, -0.71, 50.6, 3.7)"></path></g></g></g></svg>