<?xml version="1.0" encoding="UTF-8" standalone="no"?><svg xmlns="http://www.w3.org/2000/svg" xmlns:xlink="http://www.w3.org/1999/xlink" clip-rule="evenodd" stroke-miterlimit="10" viewBox="0 0 100 99"><desc>SVG generated by Keynote</desc><defs></defs><g transform="matrix(1.00, 0.00, -0.00, -1.00, 0.0, 99.0)"><g><clipPath id="clip0x6000010bd8e0"><path d="M 0.8 0.4 L 99.2 0.4 L 99.2 98.8 L 0.8 98.8 Z M 0.8 0.4 "></path></clipPath><g clip-path="url(#clip0x6000010bd8e0)"><path d="M 83.4 83.0 C 101.8 64.5 101.8 34.6 83.4 16.2 C 65.0 -2.2 35.1 -2.2 16.7 16.2 C -1.8 34.6 -1.8 64.5 16.7 83.0 C 35.1 101.4 65.0 101.4 83.4 83.0 Z M 83.4 83.0 " fill="#FEFFFE"></path><path d="M 80.6 13.8 C 99.0 32.3 99.0 62.1 80.6 80.6 C 62.1 99.0 32.3 99.0 13.8 80.6 C -4.6 62.1 -4.6 32.3 13.8 13.8 C 32.3 -4.6 62.1 -4.6 80.6 13.8 Z M 80.6 13.8 " fill="none" stroke="#000000" stroke-width="2.00" transform="matrix(1.00, 0.00, 0.00, -1.00, 2.8, 96.8)"></path></g></g><g><clipPath id="clip0x6000010bde20"><path d="M 13.2 25.0 L 66.0 77.7 L 69.5 74.2 L 16.7 21.4 Z M 13.2 25.0 "></path></clipPath><g clip-path="url(#clip0x6000010bde20)"><path d="M 0.0 0.0 L 72.6 0.0 " fill="none" stroke="#0264C0" stroke-width="3.00" transform="matrix(0.71, 0.71, 0.71, -0.71, 15.7, 23.9)"></path></g></g><g><clipPath id="clip0x6000010bda60"><path d="M 34.1 43.1 L 52.2 25.0 L 48.6 21.4 L 30.5 39.5 Z M 34.1 43.1 "></path></clipPath><g clip-path="url(#clip0x6000010bda60)"><path d="M 0.0 0.0 L 23.6 0.0 " fill="none" stroke="#0264C0" stroke-width="3.00" transform="matrix(0.71, -0.71, -0.71, -0.71, 33.0, 40.6)"></path></g></g><g><clipPath id="clip0x6000010be300"><path d="M 50.9 60.9 L 86.8 25.0 L 83.3 21.5 L 47.4 57.4 Z M 50.9 60.9 "></path></clipPath><g clip-path="url(#clip0x6000010be300)"><path d="M 0.0 0.0 L 48.8 0.0 " fill="none" stroke="#0264C0" stroke-width="3.00" transform="matrix(0.71, -0.71, -0.71, -0.71, 49.9, 58.4)"></path></g></g></g></svg>