<?xml version="1.0" encoding="UTF-8" standalone="no"?><svg xmlns="http://www.w3.org/2000/svg" xmlns:xlink="http://www.w3.org/1999/xlink" clip-rule="evenodd" stroke-miterlimit="10" viewBox="0 0 544 38"><desc>SVG generated by Keynote</desc><defs></defs><g transform="matrix(1.00, 0.00, -0.00, -1.00, 0.0, 38.0)"><text xml:space="preserve" font-family="CMUSansSerif-Oblique,CMU Sans Serif" font-style="italic" font-size="36.0" fill="#000000" transform="matrix(1.00, 0.00, -0.00, -1.00, -1.8, 9.9)">B</text><text xml:space="preserve" font-family="CMUSansSerif-Oblique,CMU Sans Serif" font-style="italic" font-size="36.0" fill="#000000" transform="matrix(1.00, 0.00, -0.00, -1.00, 22.2, 9.9)">a</text><text xml:space="preserve" font-family="CMUSansSerif-Oblique,CMU Sans Serif" font-style="italic" font-size="36.0" fill="#000000" transform="matrix(1.00, 0.00, -0.00, -1.00, 38.5, 9.9)">y</text><text xml:space="preserve" font-family="CMUSansSerif-Oblique,CMU Sans Serif" font-style="italic" font-size="36.0" fill="#000000" transform="matrix(1.00, 0.00, -0.00, -1.00, 54.1, 9.9)">e</text><text xml:space="preserve" font-family="CMUSansSerif-Oblique,CMU Sans Serif" font-style="italic" font-size="36.0" fill="#000000" transform="matrix(1.00, 0.00, -0.00, -1.00, 70.1, 9.9)">s</text><text xml:space="preserve" font-family="CMUSansSerif-Oblique,CMU Sans Serif" font-style="italic" font-size="36.0" fill="#000000" transform="matrix(1.00, 0.00, -0.00, -1.00, 83.9, 9.9)">i</text><text xml:space="preserve" font-family="CMUSansSerif-Oblique,CMU Sans Serif" font-style="italic" font-size="36.0" fill="#000000" transform="matrix(1.00, 0.00, -0.00, -1.00, 92.5, 9.9)">a</text><text xml:space="preserve" font-family="CMUSansSerif-Oblique,CMU Sans Serif" font-style="italic" font-size="36.0" fill="#000000" transform="matrix(1.00, 0.00, -0.00, -1.00, 109.7, 9.9)">n</text><text xml:space="preserve" font-family="CMUSansSerif-Oblique,CMU Sans Serif" font-style="italic" font-size="36.0" fill="#000000" transform="matrix(1.00, 0.00, -0.00, -1.00, 128.4, 9.9)"> </text><text xml:space="preserve" font-family="CMUSansSerif-Oblique,CMU Sans Serif" font-style="italic" font-size="36.0" fill="#000000" transform="matrix(1.00, 0.00, -0.00, -1.00, 140.3, 9.9)">I</text><text xml:space="preserve" font-family="CMUSansSerif-Oblique,CMU Sans Serif" font-style="italic" font-size="36.0" fill="#000000" transform="matrix(1.00, 0.00, -0.00, -1.00, 150.3, 9.9)">n</text><text xml:space="preserve" font-family="CMUSansSerif-Oblique,CMU Sans Serif" font-style="italic" font-size="36.0" fill="#000000" transform="matrix(1.00, 0.00, -0.00, -1.00, 169.0, 9.9)">f</text><text xml:space="preserve" font-family="CMUSansSerif-Oblique,CMU Sans Serif" font-style="italic" font-size="36.0" fill="#000000" transform="matrix(1.00, 0.00, -0.00, -1.00, 179.9, 9.9)">e</text><text xml:space="preserve" font-family="CMUSansSerif-Oblique,CMU Sans Serif" font-style="italic" font-size="36.0" fill="#000000" transform="matrix(1.00, 0.00, -0.00, -1.00, 195.9, 9.9)">r</text><text xml:space="preserve" font-family="CMUSansSerif-Oblique,CMU Sans Serif" font-style="italic" font-size="36.0" fill="#000000" transform="matrix(1.00, 0.00, -0.00, -1.00, 208.2, 9.9)">e</text><text xml:space="preserve" font-family="CMUSansSerif-Oblique,CMU Sans Serif" font-style="italic" font-size="36.0" fill="#000000" transform="matrix(1.00, 0.00, -0.00, -1.00, 224.2, 9.9)">n</text><text xml:space="preserve" font-family="CMUSansSerif-Oblique,CMU Sans Serif" font-style="italic" font-size="36.0" fill="#000000" transform="matrix(1.00, 0.00, -0.00, -1.00, 242.8, 9.9)">c</text><text xml:space="preserve" font-family="CMUSansSerif-Oblique,CMU Sans Serif" font-style="italic" font-size="36.0" fill="#000000" transform="matrix(1.00, 0.00, -0.00, -1.00, 258.8, 9.9)">e</text><text xml:space="preserve" font-family="CMUSansSerif-Oblique,CMU Sans Serif" font-style="italic" font-size="36.0" fill="#000000" transform="matrix(1.00, 0.00, -0.00, -1.00, 274.8, 9.9)"> </text><text xml:space="preserve" font-family="CMUSansSerif-Oblique,CMU Sans Serif" font-style="italic" font-size="36.0" fill="#000000" transform="matrix(1.00, 0.00, -0.00, -1.00, 286.8, 9.9)">o</text><text xml:space="preserve" font-family="CMUSansSerif-Oblique,CMU Sans Serif" font-style="italic" font-size="36.0" fill="#000000" transform="matrix(1.00, 0.00, -0.00, -1.00, 304.8, 9.9)">f</text><text xml:space="preserve" font-family="CMUSansSerif-Oblique,CMU Sans Serif" font-style="italic" font-size="36.0" fill="#000000" transform="matrix(1.00, 0.00, -0.00, -1.00, 315.8, 9.9)"> </text><text xml:space="preserve" font-family="CMUSansSerif-Oblique,CMU Sans Serif" font-style="italic" font-size="36.0" fill="#000000" transform="matrix(1.00, 0.00, -0.00, -1.00, 327.8, 9.9)">C</text><text xml:space="preserve" font-family="CMUSansSerif-Oblique,CMU Sans Serif" font-style="italic" font-size="36.0" fill="#000000" transform="matrix(1.00, 0.00, -0.00, -1.00, 350.8, 9.9)">o</text><text xml:space="preserve" font-family="CMUSansSerif-Oblique,CMU Sans Serif" font-style="italic" font-size="36.0" fill="#000000" transform="matrix(1.00, 0.00, -0.00, -1.00, 368.8, 9.9)">p</text><text xml:space="preserve" font-family="CMUSansSerif-Oblique,CMU Sans Serif" font-style="italic" font-size="36.0" fill="#000000" transform="matrix(1.00, 0.00, -0.00, -1.00, 387.4, 9.9)">h</text><text xml:space="preserve" font-family="CMUSansSerif-Oblique,CMU Sans Serif" font-style="italic" font-size="36.0" fill="#000000" transform="matrix(1.00, 0.00, -0.00, -1.00, 406.0, 9.9)">y</text><text xml:space="preserve" font-family="CMUSansSerif-Oblique,CMU Sans Serif" font-style="italic" font-size="36.0" fill="#000000" transform="matrix(1.00, 0.00, -0.00, -1.00, 422.6, 9.9)">l</text><text xml:space="preserve" font-family="CMUSansSerif-Oblique,CMU Sans Serif" font-style="italic" font-size="36.0" fill="#000000" transform="matrix(1.00, 0.00, -0.00, -1.00, 431.2, 9.9)">o</text><text xml:space="preserve" font-family="CMUSansSerif-Oblique,CMU Sans Serif" font-style="italic" font-size="36.0" fill="#000000" transform="matrix(1.00, 0.00, -0.00, -1.00, 449.2, 9.9)">g</text><text xml:space="preserve" font-family="CMUSansSerif-Oblique,CMU Sans Serif" font-style="italic" font-size="36.0" fill="#000000" transform="matrix(1.00, 0.00, -0.00, -1.00, 467.2, 9.9)">e</text><text xml:space="preserve" font-family="CMUSansSerif-Oblique,CMU Sans Serif" font-style="italic" font-size="36.0" fill="#000000" transform="matrix(1.00, 0.00, -0.00, -1.00, 483.2, 9.9)">n</text><text xml:space="preserve" font-family="CMUSansSerif-Oblique,CMU Sans Serif" font-style="italic" font-size="36.0" fill="#000000" transform="matrix(1.00, 0.00, -0.00, -1.00, 501.8, 9.9)">i</text><text xml:space="preserve" font-family="CMUSansSerif-Oblique,CMU Sans Serif" font-style="italic" font-size="36.0" fill="#000000" transform="matrix(1.00, 0.00, -0.00, -1.00, 510.4, 9.9)">e</text><text xml:space="preserve" font-family="CMUSansSerif-Oblique,CMU Sans Serif" font-style="italic" font-size="36.0" fill="#000000" transform="matrix(1.00, 0.00, -0.00, -1.00, 526.4, 9.9)">s</text></g></svg>