<?xml version="1.0" encoding="UTF-8" standalone="no"?><svg xmlns="http://www.w3.org/2000/svg" xmlns:xlink="http://www.w3.org/1999/xlink" clip-rule="evenodd" stroke-miterlimit="10" viewBox="0 0 321 76"><desc>SVG generated by Keynote</desc><defs></defs><g transform="matrix(1.00, 0.00, -0.00, -1.00, 0.0, 76.0)"><text xml:space="preserve" font-family="CMUSansSerif,CMU Sans Serif" font-size="24.0" fill="#000000" transform="matrix(1.00, 0.00, -0.00, -1.00, 194.4, 56.1)">A</text><text xml:space="preserve" font-family="CMUSansSerif,CMU Sans Serif" font-size="24.0" fill="#000000" transform="matrix(1.00, 0.00, -0.00, -1.00, 210.4, 56.1)">r</text><text xml:space="preserve" font-family="CMUSansSerif,CMU Sans Serif" font-size="24.0" fill="#000000" transform="matrix(1.00, 0.00, -0.00, -1.00, 218.6, 56.1)">m</text><text xml:space="preserve" font-family="CMUSansSerif,CMU Sans Serif" font-size="24.0" fill="#000000" transform="matrix(1.00, 0.00, -0.00, -1.00, 237.6, 56.1)">a</text><text xml:space="preserve" font-family="CMUSansSerif,CMU Sans Serif" font-size="24.0" fill="#000000" transform="matrix(1.00, 0.00, -0.00, -1.00, 249.2, 56.1)">n</text><text xml:space="preserve" font-family="CMUSansSerif,CMU Sans Serif" font-size="24.0" fill="#000000" transform="matrix(1.00, 0.00, -0.00, -1.00, 261.6, 56.1)"> </text><text xml:space="preserve" font-family="CMUSansSerif,CMU Sans Serif" font-size="24.0" fill="#000000" transform="matrix(1.00, 0.00, -0.00, -1.00, 269.6, 56.1)">B</text><text xml:space="preserve" font-family="CMUSansSerif,CMU Sans Serif" font-size="24.0" fill="#000000" transform="matrix(1.00, 0.00, -0.00, -1.00, 285.6, 56.1)">i</text><text xml:space="preserve" font-family="CMUSansSerif,CMU Sans Serif" font-size="24.0" fill="#000000" transform="matrix(1.00, 0.00, -0.00, -1.00, 291.3, 56.1)">l</text><text xml:space="preserve" font-family="CMUSansSerif,CMU Sans Serif" font-size="24.0" fill="#000000" transform="matrix(1.00, 0.00, -0.00, -1.00, 297.0, 56.1)">g</text><text xml:space="preserve" font-family="CMUSansSerif,CMU Sans Serif" font-size="24.0" fill="#000000" transform="matrix(1.00, 0.00, -0.00, -1.00, 309.0, 56.1)">e</text><text xml:space="preserve" font-family="CMUSansSerif,CMU Sans Serif" font-size="24.0" fill="#000000" transform="matrix(1.00, 0.00, -0.00, -1.00, 319.7, 56.1)"> </text><text xml:space="preserve" font-family="CMUSansSerif,CMU Sans Serif" font-size="24.0" fill="#000000" transform="matrix(1.00, 0.00, -0.00, -1.00, 0.9, 31.6)">C</text><text xml:space="preserve" font-family="CMUSansSerif,CMU Sans Serif" font-size="24.0" fill="#000000" transform="matrix(1.00, 0.00, -0.00, -1.00, 16.2, 31.6)">o</text><text xml:space="preserve" font-family="CMUSansSerif,CMU Sans Serif" font-size="24.0" fill="#000000" transform="matrix(1.00, 0.00, -0.00, -1.00, 28.2, 31.6)">m</text><text xml:space="preserve" font-family="CMUSansSerif,CMU Sans Serif" font-size="24.0" fill="#000000" transform="matrix(1.00, 0.00, -0.00, -1.00, 47.3, 31.6)">p</text><text xml:space="preserve" font-family="CMUSansSerif,CMU Sans Serif" font-size="24.0" fill="#000000" transform="matrix(1.00, 0.00, -0.00, -1.00, 59.7, 31.6)">u</text><text xml:space="preserve" font-family="CMUSansSerif,CMU Sans Serif" font-size="24.0" fill="#000000" transform="matrix(1.00, 0.00, -0.00, -1.00, 72.1, 31.6)">t</text><text xml:space="preserve" font-family="CMUSansSerif,CMU Sans Serif" font-size="24.0" fill="#000000" transform="matrix(1.00, 0.00, -0.00, -1.00, 80.7, 31.6)">a</text><text xml:space="preserve" font-family="CMUSansSerif,CMU Sans Serif" font-size="24.0" fill="#000000" transform="matrix(1.00, 0.00, -0.00, -1.00, 92.3, 31.6)">t</text><text xml:space="preserve" font-family="CMUSansSerif,CMU Sans Serif" font-size="24.0" fill="#000000" transform="matrix(1.00, 0.00, -0.00, -1.00, 100.9, 31.6)">i</text><text xml:space="preserve" font-family="CMUSansSerif,CMU Sans Serif" font-size="24.0" fill="#000000" transform="matrix(1.00, 0.00, -0.00, -1.00, 106.7, 31.6)">o</text><text xml:space="preserve" font-family="CMUSansSerif,CMU Sans Serif" font-size="24.0" fill="#000000" transform="matrix(1.00, 0.00, -0.00, -1.00, 118.7, 31.6)">n</text><text xml:space="preserve" font-family="CMUSansSerif,CMU Sans Serif" font-size="24.0" fill="#000000" transform="matrix(1.00, 0.00, -0.00, -1.00, 131.1, 31.6)">a</text><text xml:space="preserve" font-family="CMUSansSerif,CMU Sans Serif" font-size="24.0" fill="#000000" transform="matrix(1.00, 0.00, -0.00, -1.00, 142.6, 31.6)">l</text><text xml:space="preserve" font-family="CMUSansSerif,CMU Sans Serif" font-size="24.0" fill="#000000" transform="matrix(1.00, 0.00, -0.00, -1.00, 148.3, 31.6)"> </text><text xml:space="preserve" font-family="CMUSansSerif,CMU Sans Serif" font-size="24.0" fill="#000000" transform="matrix(1.00, 0.00, -0.00, -1.00, 156.3, 31.6)">E</text><text xml:space="preserve" font-family="CMUSansSerif,CMU Sans Serif" font-size="24.0" fill="#000000" transform="matrix(1.00, 0.00, -0.00, -1.00, 170.6, 31.6)">v</text><text xml:space="preserve" font-family="CMUSansSerif,CMU Sans Serif" font-size="24.0" fill="#000000" transform="matrix(1.00, 0.00, -0.00, -1.00, 181.7, 31.6)">o</text><text xml:space="preserve" font-family="CMUSansSerif,CMU Sans Serif" font-size="24.0" fill="#000000" transform="matrix(1.00, 0.00, -0.00, -1.00, 193.7, 31.6)">l</text><text xml:space="preserve" font-family="CMUSansSerif,CMU Sans Serif" font-size="24.0" fill="#000000" transform="matrix(1.00, 0.00, -0.00, -1.00, 199.4, 31.6)">u</text><text xml:space="preserve" font-family="CMUSansSerif,CMU Sans Serif" font-size="24.0" fill="#000000" transform="matrix(1.00, 0.00, -0.00, -1.00, 211.9, 31.6)">t</text><text xml:space="preserve" font-family="CMUSansSerif,CMU Sans Serif" font-size="24.0" fill="#000000" transform="matrix(1.00, 0.00, -0.00, -1.00, 220.5, 31.6)">i</text><text xml:space="preserve" font-family="CMUSansSerif,CMU Sans Serif" font-size="24.0" fill="#000000" transform="matrix(1.00, 0.00, -0.00, -1.00, 226.3, 31.6)">o</text><text xml:space="preserve" font-family="CMUSansSerif,CMU Sans Serif" font-size="24.0" fill="#000000" transform="matrix(1.00, 0.00, -0.00, -1.00, 238.3, 31.6)">n</text><text xml:space="preserve" font-family="CMUSansSerif,CMU Sans Serif" font-size="24.0" fill="#000000" transform="matrix(1.00, 0.00, -0.00, -1.00, 250.7, 31.6)"> </text><text xml:space="preserve" font-family="CMUSansSerif,CMU Sans Serif" font-size="24.0" fill="#000000" transform="matrix(1.00, 0.00, -0.00, -1.00, 258.7, 31.6)">G</text><text xml:space="preserve" font-family="CMUSansSerif,CMU Sans Serif" font-size="24.0" fill="#000000" transform="matrix(1.00, 0.00, -0.00, -1.00, 274.7, 31.6)">r</text><text xml:space="preserve" font-family="CMUSansSerif,CMU Sans Serif" font-size="24.0" fill="#000000" transform="matrix(1.00, 0.00, -0.00, -1.00, 282.9, 31.6)">o</text><text xml:space="preserve" font-family="CMUSansSerif,CMU Sans Serif" font-size="24.0" fill="#000000" transform="matrix(1.00, 0.00, -0.00, -1.00, 294.9, 31.6)">u</text><text xml:space="preserve" font-family="CMUSansSerif,CMU Sans Serif" font-size="24.0" fill="#000000" transform="matrix(1.00, 0.00, -0.00, -1.00, 307.3, 31.6)">p</text><text xml:space="preserve" font-family="CMUSansSerif,CMU Sans Serif" font-size="24.0" fill="#000000" transform="matrix(1.00, 0.00, -0.00, -1.00, 319.7, 31.6)"> </text><text xml:space="preserve" font-family="CMUSansSerif,CMU Sans Serif" font-size="24.0" fill="#000000" transform="matrix(1.00, 0.00, -0.00, -1.00, 45.6, 7.0)">T</text><text xml:space="preserve" font-family="CMUSansSerif,CMU Sans Serif" font-size="24.0" fill="#000000" transform="matrix(1.00, 0.00, -0.00, -1.00, 61.9, 7.0)">h</text><text xml:space="preserve" font-family="CMUSansSerif,CMU Sans Serif" font-size="24.0" fill="#000000" transform="matrix(1.00, 0.00, -0.00, -1.00, 74.3, 7.0)">e</text><text xml:space="preserve" font-family="CMUSansSerif,CMU Sans Serif" font-size="24.0" fill="#000000" transform="matrix(1.00, 0.00, -0.00, -1.00, 85.0, 7.0)"> </text><text xml:space="preserve" font-family="CMUSansSerif,CMU Sans Serif" font-size="24.0" fill="#000000" transform="matrix(1.00, 0.00, -0.00, -1.00, 93.0, 7.0)">U</text><text xml:space="preserve" font-family="CMUSansSerif,CMU Sans Serif" font-size="24.0" fill="#000000" transform="matrix(1.00, 0.00, -0.00, -1.00, 109.4, 7.0)">n</text><text xml:space="preserve" font-family="CMUSansSerif,CMU Sans Serif" font-size="24.0" fill="#000000" transform="matrix(1.00, 0.00, -0.00, -1.00, 121.9, 7.0)">i</text><text xml:space="preserve" font-family="CMUSansSerif,CMU Sans Serif" font-size="24.0" fill="#000000" transform="matrix(1.00, 0.00, -0.00, -1.00, 127.6, 7.0)">v</text><text xml:space="preserve" font-family="CMUSansSerif,CMU Sans Serif" font-size="24.0" fill="#000000" transform="matrix(1.00, 0.00, -0.00, -1.00, 138.7, 7.0)">e</text><text xml:space="preserve" font-family="CMUSansSerif,CMU Sans Serif" font-size="24.0" fill="#000000" transform="matrix(1.00, 0.00, -0.00, -1.00, 149.3, 7.0)">r</text><text xml:space="preserve" font-family="CMUSansSerif,CMU Sans Serif" font-size="24.0" fill="#000000" transform="matrix(1.00, 0.00, -0.00, -1.00, 157.5, 7.0)">s</text><text xml:space="preserve" font-family="CMUSansSerif,CMU Sans Serif" font-size="24.0" fill="#000000" transform="matrix(1.00, 0.00, -0.00, -1.00, 166.7, 7.0)">i</text><text xml:space="preserve" font-family="CMUSansSerif,CMU Sans Serif" font-size="24.0" fill="#000000" transform="matrix(1.00, 0.00, -0.00, -1.00, 172.4, 7.0)">t</text><text xml:space="preserve" font-family="CMUSansSerif,CMU Sans Serif" font-size="24.0" fill="#000000" transform="matrix(1.00, 0.00, -0.00, -1.00, 180.4, 7.0)">y</text><text xml:space="preserve" font-family="CMUSansSerif,CMU Sans Serif" font-size="24.0" fill="#000000" transform="matrix(1.00, 0.00, -0.00, -1.00, 191.5, 7.0)"> </text><text xml:space="preserve" font-family="CMUSansSerif,CMU Sans Serif" font-size="24.0" fill="#000000" transform="matrix(1.00, 0.00, -0.00, -1.00, 199.5, 7.0)">o</text><text xml:space="preserve" font-family="CMUSansSerif,CMU Sans Serif" font-size="24.0" fill="#000000" transform="matrix(1.00, 0.00, -0.00, -1.00, 211.5, 7.0)">f</text><text xml:space="preserve" font-family="CMUSansSerif,CMU Sans Serif" font-size="24.0" fill="#000000" transform="matrix(1.00, 0.00, -0.00, -1.00, 218.8, 7.0)"> </text><text xml:space="preserve" font-family="CMUSansSerif,CMU Sans Serif" font-size="24.0" fill="#000000" transform="matrix(1.00, 0.00, -0.00, -1.00, 226.8, 7.0)">A</text><text xml:space="preserve" font-family="CMUSansSerif,CMU Sans Serif" font-size="24.0" fill="#000000" transform="matrix(1.00, 0.00, -0.00, -1.00, 242.8, 7.0)">u</text><text xml:space="preserve" font-family="CMUSansSerif,CMU Sans Serif" font-size="24.0" fill="#000000" transform="matrix(1.00, 0.00, -0.00, -1.00, 255.2, 7.0)">c</text><text xml:space="preserve" font-family="CMUSansSerif,CMU Sans Serif" font-size="24.0" fill="#000000" transform="matrix(1.00, 0.00, -0.00, -1.00, 265.9, 7.0)">k</text><text xml:space="preserve" font-family="CMUSansSerif,CMU Sans Serif" font-size="24.0" fill="#000000" transform="matrix(1.00, 0.00, -0.00, -1.00, 277.6, 7.0)">l</text><text xml:space="preserve" font-family="CMUSansSerif,CMU Sans Serif" font-size="24.0" fill="#000000" transform="matrix(1.00, 0.00, -0.00, -1.00, 283.4, 7.0)">a</text><text xml:space="preserve" font-family="CMUSansSerif,CMU Sans Serif" font-size="24.0" fill="#000000" transform="matrix(1.00, 0.00, -0.00, -1.00, 294.9, 7.0)">n</text><text xml:space="preserve" font-family="CMUSansSerif,CMU Sans Serif" font-size="24.0" fill="#000000" transform="matrix(1.00, 0.00, -0.00, -1.00, 307.3, 7.0)">d</text></g></svg>