<?xml version="1.0" encoding="UTF-8" standalone="no"?><svg xmlns="http://www.w3.org/2000/svg" xmlns:xlink="http://www.w3.org/1999/xlink" clip-rule="evenodd" stroke-miterlimit="10" viewBox="0 0 100 99"><desc>SVG generated by Keynote</desc><defs></defs><g transform="matrix(1.00, 0.00, -0.00, -1.00, 0.0, 99.0)"><g><clipPath id="clip0x6000012bcce0"><path d="M 0.8 0.2 L 99.2 0.2 L 99.2 98.6 L 0.8 98.6 Z M 0.8 0.2 "></path></clipPath><g clip-path="url(#clip0x6000012bcce0)"><path d="M 83.4 82.8 C 101.8 64.3 101.8 34.4 83.4 16.0 C 65.0 -2.4 35.1 -2.4 16.6 16.0 C -1.8 34.4 -1.8 64.3 16.6 82.8 C 35.1 101.2 65.0 101.2 83.4 82.8 Z M 83.4 82.8 " fill="#FEFFFE"></path><path d="M 80.6 13.8 C 99.0 32.3 99.0 62.1 80.6 80.6 C 62.1 99.0 32.3 99.0 13.8 80.6 C -4.6 62.1 -4.6 32.3 13.8 13.8 C 32.3 -4.6 62.1 -4.6 80.6 13.8 Z M 80.6 13.8 " fill="none" stroke="#000000" stroke-width="2.00" transform="matrix(1.00, 0.00, 0.00, -1.00, 2.8, 96.6)"></path></g></g><g><clipPath id="clip0x6000012bd700"><path d="M 13.2 24.8 L 66.0 77.5 L 69.5 74.0 L 16.7 21.2 Z M 13.2 24.8 "></path></clipPath><g clip-path="url(#clip0x6000012bd700)"><path d="M 0.0 0.0 L 72.6 0.0 " fill="none" stroke="#0264C0" stroke-width="3.00" transform="matrix(0.71, 0.71, 0.71, -0.71, 15.7, 23.7)"></path></g></g><g><clipPath id="clip0x6000012bd940"><path d="M 34.1 42.9 L 52.2 24.8 L 48.6 21.2 L 30.5 39.3 Z M 34.1 42.9 "></path></clipPath><g clip-path="url(#clip0x6000012bd940)"><path d="M 0.0 0.0 L 23.6 0.0 " fill="none" stroke="#0264C0" stroke-width="3.00" transform="matrix(0.71, -0.71, -0.71, -0.71, 33.0, 40.4)"></path></g></g><g><clipPath id="clip0x6000012bdb80"><path d="M 50.9 60.7 L 86.8 24.8 L 83.3 21.3 L 47.4 57.2 Z M 50.9 60.7 "></path></clipPath><g clip-path="url(#clip0x6000012bdb80)"><path d="M 0.0 0.0 L 48.8 0.0 " fill="none" stroke="#0264C0" stroke-width="3.00" transform="matrix(0.71, -0.71, -0.71, -0.71, 49.9, 58.3)"></path></g></g><g><clipPath id="clip0x6000012bddc0"><path d="M 45.8 48.9 L 74.6 77.5 L 78.2 74.0 L 49.3 45.4 Z M 45.8 48.9 "></path></clipPath><g clip-path="url(#clip0x6000012bddc0)"><path d="M 0.0 0.0 L 38.6 0.0 " fill="none" stroke="#C82505" stroke-width="3.00" transform="matrix(0.71, 0.70, 0.70, -0.71, 48.3, 47.9)"></path></g></g><g><clipPath id="clip0x6000012be000"><path d="M 58.7 60.3 L 74.9 44.1 L 71.4 40.6 L 55.1 56.8 Z M 58.7 60.3 "></path></clipPath><g clip-path="url(#clip0x6000012be000)"><path d="M 0.0 0.0 L 20.9 0.0 " fill="none" stroke="#C82505" stroke-width="3.00" transform="matrix(0.71, -0.71, -0.71, -0.71, 57.6, 57.9)"></path></g></g></g></svg>