<?xml version="1.0" encoding="UTF-8" standalone="no"?><svg xmlns="http://www.w3.org/2000/svg" xmlns:xlink="http://www.w3.org/1999/xlink" clip-rule="evenodd" stroke-miterlimit="10" viewBox="0 0 99 99"><desc>SVG generated by Keynote</desc><defs></defs><g transform="matrix(1.00, 0.00, -0.00, -1.00, 0.0, 99.0)"><g><clipPath id="clip0x6000014a4bc0"><path d="M 0.5 0.1 L 98.9 0.1 L 98.9 98.5 L 0.5 98.5 Z M 0.5 0.1 "></path></clipPath><g clip-path="url(#clip0x6000014a4bc0)"><path d="M 83.1 82.7 C 101.5 64.2 101.5 34.4 83.1 15.9 C 64.6 -2.5 34.7 -2.5 16.3 15.9 C -2.1 34.4 -2.1 64.2 16.3 82.7 C 34.7 101.1 64.6 101.1 83.1 82.7 Z M 83.1 82.7 " fill="#FEFFFE"></path><path d="M 80.6 13.8 C 99.0 32.3 99.0 62.1 80.6 80.6 C 62.1 99.0 32.3 99.0 13.8 80.6 C -4.6 62.1 -4.6 32.3 13.8 13.8 C 32.3 -4.6 62.1 -4.6 80.6 13.8 Z M 80.6 13.8 " fill="none" stroke="#000000" stroke-width="2.00" transform="matrix(1.00, 0.00, 0.00, -1.00, 2.5, 96.5)"></path></g></g><g><clipPath id="clip0x6000014a5dc0"><path d="M 12.9 24.7 L 65.6 77.5 L 69.2 73.9 L 16.4 21.2 Z M 12.9 24.7 "></path></clipPath><g clip-path="url(#clip0x6000014a5dc0)"><path d="M 0.0 0.0 L 72.6 0.0 " fill="none" stroke="#0264C0" stroke-width="3.00" transform="matrix(0.71, 0.71, 0.71, -0.71, 15.3, 23.6)"></path></g></g><g><clipPath id="clip0x6000014a6000"><path d="M 33.7 42.8 L 51.8 24.7 L 48.3 21.2 L 30.2 39.3 Z M 33.7 42.8 "></path></clipPath><g clip-path="url(#clip0x6000014a6000)"><path d="M 0.0 0.0 L 23.6 0.0 " fill="none" stroke="#0264C0" stroke-width="3.00" transform="matrix(0.71, -0.71, -0.71, -0.71, 32.7, 40.3)"></path></g></g><g><clipPath id="clip0x6000014a6240"><path d="M 50.6 60.6 L 86.5 24.7 L 83.0 21.2 L 47.1 57.1 Z M 50.6 60.6 "></path></clipPath><g clip-path="url(#clip0x6000014a6240)"><path d="M 0.0 0.0 L 48.8 0.0 " fill="none" stroke="#0264C0" stroke-width="3.00" transform="matrix(0.71, -0.71, -0.71, -0.71, 49.5, 58.2)"></path></g></g><g><clipPath id="clip0x6000014a6480"><path d="M 30.4 33.2 L 75.1 77.5 L 78.7 73.9 L 33.9 29.6 Z M 30.4 33.2 "></path></clipPath><g clip-path="url(#clip0x6000014a6480)"><path d="M 0.0 0.0 L 60.9 0.0 " fill="none" stroke="#C82505" stroke-width="3.00" transform="matrix(0.71, 0.70, 0.70, -0.71, 32.9, 32.1)"></path></g></g><g><clipPath id="clip0x6000014a66c0"><path d="M 67.4 64.1 L 76.8 64.1 L 76.8 69.1 L 67.4 69.1 Z M 67.4 64.1 "></path></clipPath><g clip-path="url(#clip0x6000014a66c0)"><path d="M -0.4 0.1 L 7.6 0.1 " fill="none" stroke="#C82505" stroke-width="3.00" transform="matrix(1.00, 0.00, 0.00, -1.00, 68.4, 66.6)"></path></g></g><g><clipPath id="clip0x6000014a6900"><path d="M 37.2 32.6 L 74.7 69.7 L 78.2 66.2 L 40.7 29.1 Z M 37.2 32.6 "></path></clipPath><g clip-path="url(#clip0x6000014a6900)"><path d="M 0.0 0.0 L 50.8 0.0 " fill="none" stroke="#C82505" stroke-width="3.00" transform="matrix(0.71, 0.70, 0.70, -0.71, 39.7, 31.5)"></path></g></g><g><clipPath id="clip0x6000014a6b40"><path d="M 58.7 60.2 L 86.0 33.0 L 82.5 29.4 L 55.2 56.7 Z M 58.7 60.2 "></path></clipPath><g clip-path="url(#clip0x6000014a6b40)"><path d="M 0.0 0.0 L 36.6 0.0 " fill="none" stroke="#C82505" stroke-width="3.00" transform="matrix(0.71, -0.71, -0.71, -0.71, 57.7, 57.8)"></path></g></g><g><clipPath id="clip0x6000014a6d80"><path d="M 66.6 60.2 L 93.1 33.6 L 89.6 30.1 L 63.1 56.7 Z M 66.6 60.2 "></path></clipPath><g clip-path="url(#clip0x6000014a6d80)"><path d="M 0.0 0.0 L 35.5 0.0 " fill="none" stroke="#C82505" stroke-width="3.00" transform="matrix(0.71, -0.71, -0.71, -0.71, 65.6, 57.8)"></path></g></g><g><clipPath id="clip0x6000014a6fc0"><path d="M 41.6 40.7 L 48.9 33.3 L 45.4 29.8 L 38.0 37.1 Z M 41.6 40.7 "></path></clipPath><g clip-path="url(#clip0x6000014a6fc0)"><path d="M 0.0 0.0 L 8.4 0.0 " fill="none" stroke="#C82505" stroke-width="3.00" transform="matrix(0.71, -0.71, -0.71, -0.71, 40.5, 38.2)"></path></g></g><g><clipPath id="clip0x6000014a7200"><path d="M 48.6 40.7 L 55.9 33.3 L 52.4 29.8 L 45.0 37.1 Z M 48.6 40.7 "></path></clipPath><g clip-path="url(#clip0x6000014a7200)"><path d="M 0.0 0.0 L 8.4 0.0 " fill="none" stroke="#C82505" stroke-width="3.00" transform="matrix(0.71, -0.71, -0.71, -0.71, 47.5, 38.2)"></path></g></g><g><clipPath id="clip0x6000014a7440"><path d="M 56.5 39.3 L 80.8 39.3 L 80.8 34.3 L 56.5 34.3 Z M 56.5 39.3 "></path></clipPath><g clip-path="url(#clip0x6000014a7440)"><path d="M 0.0 0.0 L 22.4 0.0 " fill="none" stroke="#C82505" stroke-width="3.00" transform="matrix(1.00, 0.00, 0.00, -1.00, 57.5, 36.8)"></path></g></g><g><clipPath id="clip0x6000014a7680"><path d="M 57.4 39.9 L 64.4 33.0 L 60.9 29.4 L 53.9 36.4 Z M 57.4 39.9 "></path></clipPath><g clip-path="url(#clip0x6000014a7680)"><path d="M 0.0 0.0 L 7.9 0.0 " fill="none" stroke="#C82505" stroke-width="3.00" transform="matrix(0.71, -0.71, -0.71, -0.71, 56.4, 37.5)"></path></g></g></g></svg>