<?xml version="1.0" encoding="UTF-8" standalone="no"?><svg xmlns="http://www.w3.org/2000/svg" xmlns:xlink="http://www.w3.org/1999/xlink" clip-rule="evenodd" stroke-miterlimit="10" viewBox="0 0 99 99"><desc>SVG generated by Keynote</desc><defs></defs><g transform="matrix(1.00, 0.00, -0.00, -1.00, 0.0, 99.0)"><g><clipPath id="clip0x6000012b4820"><path d="M 0.5 0.3 L 98.9 0.3 L 98.9 98.7 L 0.5 98.7 Z M 0.5 0.3 "></path></clipPath><g clip-path="url(#clip0x6000012b4820)"><path d="M 83.1 82.9 C 101.5 64.5 101.5 34.6 83.1 16.2 C 64.7 -2.3 34.8 -2.3 16.4 16.2 C -2.1 34.6 -2.1 64.5 16.4 82.9 C 34.8 101.3 64.7 101.3 83.1 82.9 Z M 83.1 82.9 " fill="#FEFFFE"></path><path d="M 80.6 13.8 C 99.0 32.3 99.0 62.1 80.6 80.6 C 62.1 99.0 32.3 99.0 13.8 80.6 C -4.6 62.1 -4.6 32.3 13.8 13.8 C 32.3 -4.6 62.1 -4.6 80.6 13.8 Z M 80.6 13.8 " fill="none" stroke="#000000" stroke-width="2.00" transform="matrix(1.00, 0.00, 0.00, -1.00, 2.5, 96.7)"></path></g></g><g><clipPath id="clip0x6000012b57e0"><path d="M 12.9 24.9 L 65.7 77.7 L 69.2 74.2 L 16.5 21.4 Z M 12.9 24.9 "></path></clipPath><g clip-path="url(#clip0x6000012b57e0)"><path d="M 0.0 0.0 L 72.6 0.0 " fill="none" stroke="#0264C0" stroke-width="3.00" transform="matrix(0.71, 0.71, 0.71, -0.71, 15.4, 23.9)"></path></g></g><g><clipPath id="clip0x6000012b5a20"><path d="M 33.8 43.0 L 51.9 24.9 L 48.3 21.4 L 30.3 39.5 Z M 33.8 43.0 "></path></clipPath><g clip-path="url(#clip0x6000012b5a20)"><path d="M 0.0 0.0 L 23.6 0.0 " fill="none" stroke="#0264C0" stroke-width="3.00" transform="matrix(0.71, -0.71, -0.71, -0.71, 32.7, 40.6)"></path></g></g><g><clipPath id="clip0x6000012b5c60"><path d="M 50.6 60.9 L 86.6 25.0 L 83.0 21.4 L 47.1 57.3 Z M 50.6 60.9 "></path></clipPath><g clip-path="url(#clip0x6000012b5c60)"><path d="M 0.0 0.0 L 48.8 0.0 " fill="none" stroke="#0264C0" stroke-width="3.00" transform="matrix(0.71, -0.71, -0.71, -0.71, 49.6, 58.4)"></path></g></g><g><clipPath id="clip0x6000012b5ea0"><path d="M 21.5 24.9 L 74.3 77.7 L 77.9 74.2 L 25.0 21.3 Z M 21.5 24.9 "></path></clipPath><g clip-path="url(#clip0x6000012b5ea0)"><path d="M 0.0 0.0 L 72.8 0.0 " fill="none" stroke="#C82505" stroke-width="3.00" transform="matrix(0.71, 0.71, 0.71, -0.71, 23.9, 23.8)"></path></g></g><g><clipPath id="clip0x6000012b60e0"><path d="M 58.4 60.5 L 86.9 32.1 L 83.4 28.6 L 54.9 56.9 Z M 58.4 60.5 "></path></clipPath><g clip-path="url(#clip0x6000012b60e0)"><path d="M 0.0 0.0 L 38.2 0.0 " fill="none" stroke="#C82505" stroke-width="3.00" transform="matrix(0.71, -0.71, -0.71, -0.71, 57.3, 58.0)"></path></g></g><g><clipPath id="clip0x6000012b6320"><path d="M 50.1 41.2 L 78.4 41.2 L 78.4 36.2 L 50.1 36.2 Z M 50.1 41.2 "></path></clipPath><g clip-path="url(#clip0x6000012b6320)"><path d="M -0.1 0.2 L 25.9 0.2 " fill="none" stroke="#C82505" stroke-width="3.00" transform="matrix(1.00, 0.00, 0.00, -1.00, 51.1, 38.7)"></path></g></g><g><clipPath id="clip0x6000012b6560"><path d="M 51.8 41.6 L 68.5 25.0 L 65.0 21.5 L 48.3 38.1 Z M 51.8 41.6 "></path></clipPath><g clip-path="url(#clip0x6000012b6560)"><path d="M 0.0 0.0 L 21.6 0.0 " fill="none" stroke="#C82505" stroke-width="3.00" transform="matrix(0.71, -0.70, -0.70, -0.71, 50.7, 39.1)"></path></g></g><g><clipPath id="clip0x6000012b67a0"><path d="M 41.0 42.3 L 58.4 25.0 L 54.8 21.5 L 37.5 38.8 Z M 41.0 42.3 "></path></clipPath><g clip-path="url(#clip0x6000012b67a0)"><path d="M 0.0 0.0 L 22.5 0.0 " fill="none" stroke="#C82505" stroke-width="3.00" transform="matrix(0.71, -0.71, -0.71, -0.71, 39.9, 39.9)"></path></g></g><g><clipPath id="clip0x6000012b69e0"><path d="M 26.3 25.2 L 35.8 25.2 L 35.8 30.2 L 26.3 30.2 Z M 26.3 25.2 "></path></clipPath><g clip-path="url(#clip0x6000012b69e0)"><path d="M -0.3 0.2 L 7.7 0.2 " fill="none" stroke="#C82505" stroke-width="3.00" transform="matrix(1.00, 0.00, 0.00, -1.00, 27.3, 27.7)"></path></g></g><g><clipPath id="clip0x6000012b6c20"><path d="M 27.8 24.4 L 34.0 30.6 L 37.6 27.1 L 31.3 20.8 Z M 27.8 24.4 "></path></clipPath><g clip-path="url(#clip0x6000012b6c20)"><path d="M 0.0 0.0 L 6.8 0.0 " fill="none" stroke="#C82505" stroke-width="3.00" transform="matrix(0.71, 0.71, 0.71, -0.71, 30.3, 23.3)"></path></g></g></g></svg>